<?xml version="1.0" encoding="UTF-8" standalone="no"?>
<svg
   width="589.84406"
   zoomAndPan="magnify"
   viewBox="0 0 442.38304 150.12628"
   height="200.16838"
   preserveAspectRatio="xMidYMid meet"
   version="1.0"
   id="svg301"
   sodipodi:docname="logo.svg"
   inkscape:version="1.1.2 (0a00cf5339, 2022-02-04)"
   xmlns:inkscape="http://www.inkscape.org/namespaces/inkscape"
   xmlns:sodipodi="http://sodipodi.sourceforge.net/DTD/sodipodi-0.dtd"
   xmlns="http://www.w3.org/2000/svg"
   xmlns:svg="http://www.w3.org/2000/svg">
  <sodipodi:namedview
     id="namedview303"
     pagecolor="#ffffff"
     bordercolor="#666666"
     borderopacity="1.0"
     inkscape:pageshadow="2"
     inkscape:pageopacity="0.0"
     inkscape:pagecheckerboard="0"
     showgrid="false"
     inkscape:zoom="1.324"
     inkscape:cx="289.65257"
     inkscape:cy="117.06949"
     inkscape:window-width="2560"
     inkscape:window-height="1391"
     inkscape:window-x="3839"
     inkscape:window-y="0"
     inkscape:window-maximized="1"
     inkscape:current-layer="svg301" />
  <defs
     id="defs7">
    <g
       id="g2" />
    <clipPath
       id="a25a7256a3">
      <path
         d="M 13.136719,104.61328 H 180.16406 v 113.25 H 13.136719 Z m 0,0"
         clip-rule="nonzero"
         id="path4" />
    </clipPath>
  </defs>
  <g
     clip-path="url(#a25a7256a3)"
     id="g15"
     transform="translate(29.883041,-99.854073)">
    <path
       fill="#dbccb6"
       d="m 154.84375,104.61719 c -0.26953,0.4375 -0.50391,0.89844 -0.75781,1.34375 0.0859,0.46875 0.35547,0.8789 0.5664,1.30078 0.98438,1.77734 2.08594,3.48828 3.17969,5.19922 1.42969,2.22656 2.89844,4.42578 4.37109,6.62109 -1.05078,0.0625 -2.09375,-0.14062 -3.12109,-0.33594 0.004,-0.0156 0.0156,-0.043 0.0195,-0.0586 0.26563,-0.21484 0.45313,-0.53906 0.45703,-0.88672 0.0312,-0.63281 -0.34375,-1.19922 -0.78125,-1.625 -0.5039,-0.52344 -1.14062,-0.90625 -1.8125,-1.17578 -0.10156,0.84766 -0.0937,1.72266 0.15625,2.54688 0.0898,0.30859 0.27344,0.57812 0.45313,0.84765 -1.16016,-0.28125 -2.3086,-0.62109 -3.44922,-0.97265 -0.54297,-0.17969 -1.10156,-0.32032 -1.62891,-0.53907 0.0703,-0.0195 0.13672,-0.0352 0.20703,-0.0508 0.41797,-0.30469 0.71485,-0.78125 0.76563,-1.30078 0.082,-0.68359 -0.21875,-1.34766 -0.60156,-1.89453 -0.81641,-1.14063 -2.04297,-1.91016 -3.3125,-2.46094 -0.0781,0.70703 -0.13672,1.42188 -0.0703,2.12891 0.0352,0.72656 0.16407,1.45703 0.44922,2.1289 0.10547,0.25391 0.26953,0.48047 0.39844,0.71875 -0.97656,-0.3164 -1.93359,-0.6914 -2.87891,-1.08984 -0.68359,-0.29297 -1.36328,-0.60156 -2.01562,-0.96484 0.43359,-0.21875 0.82031,-0.5625 0.99609,-1.02344 0.29688,-0.75 0.0859,-1.58984 -0.26562,-2.28125 -0.40625,-0.84375 -1.0625,-1.53125 -1.75,-2.14844 -0.29688,-0.25 -0.60938,-0.48047 -0.92969,-0.70312 -0.35156,1.14843 -0.625,2.34375 -0.56641,3.55078 0.0195,0.4414 0.13672,0.86719 0.25782,1.28906 -0.73047,-0.48047 -1.41407,-1.01953 -2.04688,-1.62109 -0.46484,-0.46485 -0.92578,-0.95313 -1.24219,-1.53516 -0.10546,0.27734 -0.21875,0.55469 -0.3164,0.83594 -0.0664,0.23047 0.0977,0.4414 0.21875,0.62109 0.19922,0.28906 0.47656,0.50391 0.71484,0.75781 -0.375,0.008 -0.7539,-0.0195 -1.125,0.0664 -1.39453,0.28906 -2.61328,1.12109 -3.625,2.10156 1.13672,0.58203 2.33985,1.08594 3.61719,1.23828 0.53516,0.0312 1.08984,0.0469 1.59375,-0.16406 0.5625,-0.21875 1.00391,-0.72265 1.17969,-1.30078 0.0898,-0.23047 0.14453,-0.48047 0.0859,-0.72656 0.26563,0.11719 0.50782,0.28125 0.75782,0.42578 1.01562,0.58984 2.05468,1.14062 3.09765,1.67969 0.39063,0.22656 0.82032,0.39453 1.16797,0.68359 -0.74609,-0.0312 -1.46875,0.19531 -2.16406,0.42578 -0.80469,0.26953 -1.58203,0.60547 -2.36328,0.9336 -0.26563,-0.32422 -0.60547,-0.58204 -1.00391,-0.71485 -0.61328,-0.19922 -1.27344,-0.18359 -1.90234,-0.0703 -1.21485,0.24219 -2.34375,0.83203 -3.3086,1.59375 0.6836,0.46094 1.39454,0.88672 2.15625,1.21484 0.8711,0.36328 1.83594,0.67188 2.78516,0.47657 0.74219,-0.14063 1.33984,-0.75391 1.54297,-1.47266 0.39062,-0.15234 0.79687,-0.25391 1.20312,-0.36719 -0.55078,1.30078 -0.47265,2.77344 -0.13281,4.11719 0.99219,-0.57031 1.94531,-1.24219 2.69141,-2.12109 0.44922,-0.54297 0.83594,-1.21485 0.77734,-1.94532 0.004,-0.29687 -0.11328,-0.57422 -0.24219,-0.83593 0.69141,-0.14063 1.37891,-0.32032 2.07032,-0.46485 0.46875,0.35547 1.01953,0.57031 1.55859,0.79297 0.71875,0.28125 1.44531,0.54297 2.17969,0.77344 0.22656,0.0742 0.45703,0.14844 0.68359,0.21484 0,0.0156 -0.004,0.0508 -0.008,0.0703 -0.93359,0.3086 -1.73438,0.92188 -2.41406,1.6211 -0.86719,0.91797 -1.55469,1.99609 -2.0586,3.15234 1.07032,0.15235 2.15625,0.16797 3.23828,0.13672 1.0625,-0.0742 2.14454,-0.23437 3.11329,-0.70703 0.66796,-0.33203 1.26953,-0.87109 1.53906,-1.58594 0.20312,-0.51562 0.22656,-1.08203 0.17578,-1.6289 0.76953,0.17578 1.52344,0.41406 2.29297,0.58984 -0.004,0.0391 -0.008,0.0781 -0.0117,0.11328 -0.47266,0.17578 -0.87891,0.48828 -1.22266,0.85156 -0.40625,0.39063 -0.71875,0.86328 -0.99218,1.35157 0.60937,0.11328 1.22656,0.1875 1.84765,0.1875 0.67578,-0.0352 1.40625,-0.10547 1.94922,-0.55469 0.40625,-0.33203 0.54297,-0.88672 0.5,-1.39453 0.77734,0.14843 1.54297,0.36718 2.31641,0.54297 1.2539,1.68359 2.5625,3.33203 3.85547,4.98828 1.30859,1.66015 2.62109,3.3125 3.94921,4.95703 0.83985,1.0664 1.58594,2.21093 2.20313,3.42578 0.55859,1.16797 1.01172,2.39844 1.19141,3.68359 0.0586,0.52735 0.13281,1.0586 0.0273,1.58203 -1.17188,-0.17187 -2.33203,-0.45703 -3.44141,-0.875 -0.14062,-0.0547 -0.28125,-0.10156 -0.42187,-0.14062 -0.0156,-0.0234 -0.043,-0.0664 -0.0547,-0.0898 0.53125,-0.33593 0.91406,-0.89062 1.03516,-1.50781 0.20703,-0.90625 -0.0312,-1.84375 -0.40235,-2.67187 -0.46484,-1.02735 -1.18359,-1.91016 -1.97265,-2.70313 -0.47266,0.81641 -0.82813,1.70313 -1.09766,2.60938 -0.28125,1.0039 -0.44141,2.11718 -0.0352,3.11328 -0.54296,-0.3125 -1.07812,-0.64453 -1.58984,-1.00391 -0.0781,-0.0469 -0.008,-0.13281 0.0312,-0.17578 0.44922,-0.49609 0.625,-1.19922 0.52344,-1.85156 -0.1211,-0.77344 -0.51563,-1.47266 -1,-2.07031 -1.01953,-1.21485 -2.38281,-2.10157 -3.83985,-2.69922 -0.0586,0.65625 -0.11718,1.3164 -0.12109,1.97656 0.0352,1.16797 0.13281,2.37109 0.64063,3.44141 0.28906,0.63671 0.77734,1.20703 1.43359,1.48046 0.46484,0.20313 0.98047,0.23047 1.47656,0.20704 1.23828,1.0039 2.64063,1.78906 4.0586,2.50781 -0.25,0.1914 -0.50782,0.37109 -0.70704,0.61719 -0.60937,0.73046 -0.87109,1.67968 -1,2.60546 0.67579,-0.0898 1.33594,-0.28515 1.96094,-0.55078 0.51172,-0.23047 1.02735,-0.52734 1.34375,-1.00781 0.15625,-0.21875 0.21485,-0.48437 0.24219,-0.74609 1.03516,0.46093 2.07031,0.92968 3.12109,1.35156 -0.0781,0.70312 -0.17968,1.40234 -0.1875,2.10547 -0.0781,0.69531 -0.0391,1.39062 -0.0586,2.08594 0.008,0.71484 0.004,1.42968 0.0195,2.14453 0.0234,0.26562 0.0508,0.53515 0.043,0.80468 -0.004,0.33594 0.0586,0.66797 0.0625,1 -1.02344,-0.0352 -2.01953,-0.3164 -3,-0.59765 -0.72656,-0.20703 -1.42969,-0.47266 -2.14063,-0.72266 0.17969,-0.20312 0.37891,-0.40625 0.46875,-0.66797 0.29297,-0.74218 0.1211,-1.57422 -0.16796,-2.28906 -0.36329,-0.87109 -0.91407,-1.66797 -1.60547,-2.3125 -0.57032,1.00391 -1.04688,2.08594 -1.16797,3.24219 -0.0391,0.32422 0.0234,0.64453 0.0586,0.96094 -0.50781,-0.20313 -0.96484,-0.50391 -1.46094,-0.73829 0.0117,-0.0312 0.0195,-0.0664 0.0312,-0.0977 0.63282,-0.29688 1.05079,-0.94141 1.20704,-1.60938 0.19921,-0.85937 0.0273,-1.7539 -0.2461,-2.57812 -0.5039,-1.4336 -1.41797,-2.69531 -2.48047,-3.77344 -0.6289,1.10156 -1.16797,2.26563 -1.49218,3.49609 -0.17969,0.67579 -0.26954,1.375 -0.23829,2.07032 -0.1875,-0.17969 -0.34375,-0.39453 -0.5,-0.60157 -0.60546,-0.78906 -1.13671,-1.6289 -1.66015,-2.47265 -0.0586,-0.0937 -0.10156,-0.19531 -0.14844,-0.29688 0.54297,-0.10156 0.98438,-0.51953 1.1875,-1.02343 0.31641,-0.76954 0.29297,-1.63672 0.125,-2.4375 -0.0937,-0.47657 -0.25391,-0.9336 -0.44141,-1.37891 -0.63281,0.52344 -1.24218,1.08984 -1.72265,1.75781 -0.1836,0.25 -0.31641,0.53125 -0.46875,0.80078 -0.3086,-0.61718 -0.66797,-1.21484 -0.94531,-1.84765 0.14843,-0.10547 0.3125,-0.1875 0.44921,-0.30469 0.2461,-0.21094 0.40625,-0.5 0.53125,-0.79297 0.23829,-0.74219 0.11719,-1.53906 -0.13671,-2.25781 -0.23829,-0.67188 -0.60157,-1.29297 -1.01954,-1.86719 0.26172,-0.9375 0.4336,-1.91016 0.41797,-2.89062 0.0195,-1.01563 -0.1289,-2.03125 -0.35156,-3.02344 -0.19922,0.0703 -0.38672,0.17187 -0.57031,0.28125 -0.88281,0.47656 -1.73047,1.01562 -2.52735,1.62109 -0.88281,0.67578 -1.69921,1.46094 -2.28125,2.41797 -0.0508,-0.17578 -0.0977,-0.34766 -0.14843,-0.52344 0.39843,-0.2539 0.48828,-0.77343 0.52343,-1.21484 -0.0195,-0.73437 -0.47265,-1.37109 -1.01953,-1.82812 -0.83984,-0.69141 -1.88672,-1.08985 -2.9414,-1.31641 -0.39063,-0.0898 -0.79297,-0.12109 -1.19141,-0.18359 0.24609,1.10937 0.59375,2.21093 1.17188,3.19531 0.33984,0.55078 0.75781,1.08593 1.34375,1.39062 0.43359,0.23438 0.9414,0.28906 1.42187,0.19922 0.13281,0.45313 0.33594,0.88672 0.46484,1.34375 0.0664,0.26563 0.0312,0.54688 0.11329,0.80859 0.0586,0.2461 0.17968,0.46485 0.30468,0.67969 0.10938,0.1875 0.14844,0.40235 0.20313,0.60547 -0.58985,-0.53516 -1.27735,-0.96094 -2.01953,-1.24609 -1.01563,-0.39844 -2.09766,-0.59375 -3.17969,-0.66016 -0.91406,-0.0156 -1.83203,-0.0352 -2.73828,0.10547 0.67969,1.48437 1.5039,2.92187 2.55469,4.17969 0.60156,0.71484 1.29687,1.37109 2.125,1.82422 0.6914,0.375 1.5,0.58593 2.28515,0.4414 0.54688,-0.0781 1.05078,-0.3164 1.51563,-0.60547 -0.004,0.98047 -0.1836,1.95313 -0.42969,2.89453 -0.21875,0.80079 -0.50391,1.58204 -0.89063,2.31641 -0.0898,0.16797 -0.1875,0.33984 -0.33203,0.46875 -0.28125,-0.78906 -0.88281,-1.40234 -1.48047,-1.96484 -1.17968,-1.02735 -2.5039,-1.89844 -3.94531,-2.51953 -2.01953,-0.89844 -4.1914,-1.38282 -6.34765,-1.83204 -0.5,-0.12109 -1.01954,-0.19921 -1.48047,-0.43359 -0.59375,-0.36719 -1.13282,-0.8125 -1.69141,-1.22656 -0.32812,-0.26172 -0.67578,-0.5 -0.97656,-0.79297 0.25,-0.12891 0.5,-0.26172 0.69922,-0.46484 0.3789,-0.38672 0.58593,-0.91016 0.66797,-1.4375 0.0898,-0.79297 -0.0117,-1.59766 -0.26172,-2.35547 -0.30078,-0.96485 -0.8086,-1.85156 -1.39063,-2.67578 -0.66015,0.83203 -1.26172,1.71875 -1.69922,2.6914 -0.3125,0.70313 -0.52734,1.45703 -0.51562,2.23047 -0.58203,-0.42578 -1.125,-0.90234 -1.67578,-1.36719 -0.38672,-0.36718 -0.79688,-0.73437 -1.03516,-1.22265 -0.12109,-0.23047 -0.15625,-0.48828 -0.21094,-0.73828 0.69141,0.30468 1.50391,0.35156 2.20703,0.0703 0.78907,-0.3086 1.42188,-0.91016 1.90625,-1.58984 1.13672,-1.62891 1.59375,-3.64844 1.65625,-5.60938 -1.58203,0.39063 -3.14843,0.92578 -4.54296,1.77734 -0.59375,0.35938 -1.12891,0.8125 -1.57422,1.34766 -0.0586,0.0781 -0.13672,0.14063 -0.21875,0.19531 -0.16797,-1.11328 -0.73047,-2.11328 -1.29688,-3.07031 0.66406,-0.0781 1.28906,-0.37891 1.80469,-0.79297 0.76562,-0.62109 1.20312,-1.57031 1.33984,-2.53515 0.21485,-1.44922 -0.1289,-2.91797 -0.67187,-4.25782 -0.4336,-1.07031 -1.02735,-2.07031 -1.69531,-3.00781 -0.75782,0.89063 -1.40235,1.87891 -1.97266,2.89844 -0.71484,1.33203 -1.32031,2.78906 -1.28906,4.32422 -0.32422,-0.32813 -0.60156,-0.69532 -0.91797,-1.03125 -0.0937,-0.0937 -0.19922,-0.1836 -0.26953,-0.30078 0.21094,-0.58985 0.1289,-1.26563 -0.19531,-1.80079 -0.51172,-0.83593 -1.33204,-1.4375 -2.20313,-1.86328 -0.6875,-0.33984 -1.42578,-0.57812 -2.17578,-0.73047 0.0352,0.72657 0.17187,1.44141 0.35547,2.14454 0.16015,0.61718 0.39062,1.22265 0.71875,1.76953 0.32031,0.52734 0.77734,1 1.3789,1.1875 0.35938,0.1289 0.7461,0.0898 1.11719,0.0781 0.14063,0.12891 0.28125,0.25391 0.41016,0.39844 -0.64844,0.0234 -1.28906,0.19141 -1.85156,0.51953 -0.26954,0.14063 -0.53125,0.29688 -0.77735,0.48047 0.77344,0.53125 1.625,1.03516 2.58203,1.11328 0.51172,0.0586 1.0625,-0.14453 1.33985,-0.59375 0.0469,-0.11328 0.16797,-0.0469 0.21875,0.0273 0.41015,0.46875 0.8125,0.94532 1.19922,1.42969 0.20312,0.26953 0.45312,0.51172 0.57031,0.83594 -1.44922,-0.64844 -3.10547,-0.64844 -4.63281,-0.30859 0.55859,0.9375 1.17968,1.85156 1.98437,2.59375 0.39453,0.375 0.84375,0.70703 1.35547,0.91015 0.39844,0.14453 0.83984,0.23047 1.26172,0.12891 0.3125,-0.0547 0.58593,-0.21875 0.85937,-0.375 0.0352,0.98437 -0.0664,1.97656 -0.35156,2.92187 -0.83984,-0.73047 -1.8125,-1.28515 -2.76172,-1.86328 -0.46094,-0.29687 -0.95312,-0.54297 -1.42578,-0.82812 -0.46484,-0.23047 -0.89844,-0.54297 -1.39062,-0.72657 -0.004,-0.26953 0.0312,-0.54296 -0.043,-0.80859 -0.14453,-0.54297 -0.52344,-1 -0.98438,-1.3125 -0.92578,-0.64453 -2.0664,-0.89453 -3.17578,-0.96875 -0.50781,-0.004 -1.01562,-0.0273 -1.51953,0.0469 0.39453,0.84765 0.80859,1.6875 1.37891,2.43359 0.375,0.5 0.80859,0.96875 1.33593,1.30469 0.41016,0.26172 0.89453,0.42187 1.38282,0.38672 0.46484,-0.0312 0.90625,-0.22266 1.27343,-0.50782 0.4375,0.17969 0.83985,0.42969 1.25391,0.65625 0.29687,0.17969 0.61719,0.32422 0.87891,0.5586 -0.47266,0.0742 -0.95313,0.12109 -1.41016,0.27734 -0.60156,0.17578 -1.16406,0.45313 -1.71094,0.75781 0.76172,0.66407 1.57813,1.28125 2.50391,1.69141 0.60156,0.2539 1.28125,0.45312 1.92969,0.26953 0.58984,-0.15625 1.00781,-0.66406 1.25781,-1.19531 0.0156,0.008 0.0508,0.0156 0.0664,0.0195 0.48438,0.42969 1,0.82422 1.44532,1.29297 -0.76953,-0.0352 -1.51172,0.25781 -2.15235,0.66797 -0.57422,0.39843 -1.11718,0.85546 -1.54297,1.41796 0.48438,0.22266 1,0.34375 1.50782,0.49219 0.65234,0.16016 1.32812,0.24219 2,0.17578 0.44921,-0.0586 0.90625,-0.21875 1.23046,-0.54297 0.20313,-0.19531 0.32422,-0.44921 0.42579,-0.70703 0.48437,0.47657 0.8789,1.03125 1.3164,1.55078 0.52344,0.75391 1.07422,1.4961 1.48047,2.32422 -1.09766,-0.28125 -2.18359,-0.59375 -3.28906,-0.84765 -2.625,-0.64063 -5.26953,-1.19141 -7.92578,-1.70703 -1.23047,-0.28516 -2.45313,-0.6211 -3.65235,-1.03125 -0.24218,-0.0898 -0.50781,-0.13282 -0.72656,-0.27735 0.10547,-0.0273 0.20313,-0.0547 0.30078,-0.0742 0.33594,-0.25 0.64844,-0.53515 0.87891,-0.88672 0.33984,-0.5 0.49609,-1.11328 0.48047,-1.71484 -0.043,-1.07422 -0.52735,-2.07031 -1.15235,-2.92578 -1.21484,-1.63281 -2.92578,-2.83984 -4.74609,-3.71484 -0.25781,1.44531 -0.35937,2.92187 -0.26562,4.39062 0.0859,1.02735 0.27343,2.06641 0.75,2.99219 0.1289,0.25781 0.30859,0.48828 0.45312,0.73437 -1.0625,-0.38672 -2.09766,-0.84765 -3.14062,-1.28515 -0.17188,-0.0742 -0.34766,-0.14844 -0.51563,-0.23828 0.39063,0.004 0.67578,-0.28907 0.90625,-0.57032 0.37109,-0.44531 0.55469,-1.03515 0.50391,-1.61328 -0.0547,-0.85937 -0.47266,-1.65234 -0.99219,-2.32422 -0.94922,-1.21093 -2.23438,-2.11328 -3.61328,-2.78125 -0.19531,1.27735 -0.32422,2.58204 -0.15625,3.86719 0.0859,0.66406 0.23828,1.33203 0.55469,1.92578 0.0508,0.0977 0.0937,0.19922 0.13281,0.30078 -0.52344,-0.21484 -1.02344,-0.47656 -1.53906,-0.70703 -0.47657,-0.21875 -0.9375,-0.48047 -1.42188,-0.67968 0.0352,-0.64063 -0.20703,-1.29297 -0.66016,-1.7461 -0.59375,-0.63672 -1.4375,-0.98047 -2.27343,-1.16406 -1.54688,-0.34375 -3.156254,-0.17578 -4.675785,0.22266 0.574219,0.91796 1.25,1.76562 2.003906,2.54296 0.589844,0.57032 1.226559,1.11329 1.976559,1.46485 0.55469,0.24609 1.17969,0.40234 1.78516,0.28515 0.625,-0.10937 1.19141,-0.46875 1.60547,-0.9414 0.18359,0.0117 0.33203,0.1289 0.48828,0.21094 0.57031,0.30468 1.15234,0.59375 1.73438,0.875 0.21093,0.10546 0.4375,0.1875 0.61718,0.34375 -0.5,0.0547 -1.00781,0.0977 -1.48828,0.25781 -1.02344,0.3125 -1.95312,0.8789 -2.76953,1.55859 -1.11719,0.94141 -2.0625,2.07422 -2.81641,3.32031 1.23829,0.31641 2.5,0.55469 3.77735,0.64453 1.34765,0.10157 2.74219,0.0664 4.02344,-0.40625 0.76171,-0.26953 1.44921,-0.77343 1.88671,-1.46484 0.37891,-0.63672 0.53125,-1.38281 0.54297,-2.11719 0.0234,-0.17578 -0.10547,-0.3125 -0.18359,-0.45312 0.46875,0.16406 0.90625,0.39453 1.36328,0.58594 0.64453,0.28515 1.28516,0.57031 1.93359,0.84765 0.10938,0.0469 0.21485,0.10938 0.3125,0.17188 -0.79687,0.19531 -1.55859,0.53515 -2.22656,1.01953 -1.09765,0.79297 -1.99609,1.83984 -2.69922,2.99219 1.29688,0.36328 2.64453,0.55859 3.99219,0.57031 1.05078,-0.0391 2.17578,-0.17188 3.04688,-0.81641 0.35156,-0.23828 0.60156,-0.59375 0.78125,-0.97265 0.24609,-0.4336 0.28906,-0.94141 0.3164,-1.42969 1.41016,0.57422 2.80078,1.18359 4.20703,1.76562 -0.35547,0.38282 -0.82422,0.62891 -1.26562,0.89844 -0.92969,0.50391 -1.88281,0.95313 -2.85938,1.36328 -0.64062,0.25391 -1.28125,0.50391 -1.92187,0.76563 -1.14063,0.39453 -2.27344,0.8164 -3.42188,1.1875 -2.08203,0.67187 -4.17578,1.32422 -6.29297,1.88281 0.21875,-0.51563 0.33204,-1.08594 0.21875,-1.64453 -0.14843,-0.77735 -0.61718,-1.46094 -1.1914,-1.99219 -0.6875,-0.67187 -1.53516,-1.15234 -2.41016,-1.52734 -1.15625,-0.49219 -2.390624,-0.77344 -3.636718,-0.91797 0.222657,1.24609 0.582032,2.46875 1.074219,3.63672 0.519529,1.18359 1.234379,2.37109 2.382809,3.03906 0.0625,0.043 0.10938,0.10156 0.16016,0.16016 -1.08203,0.16796 -2.16797,0.32421 -3.261719,0.38281 0.117188,-0.22656 0.257813,-0.44531 0.335938,-0.6875 0.210937,-0.59766 0.128906,-1.26953 -0.140625,-1.83203 -0.339844,-0.69532 -0.882813,-1.26953 -1.496094,-1.73047 -1.195312,-0.91797 -2.636719,-1.44531 -4.097656,-1.76563 0.08203,1.16797 0.300781,2.32813 0.675781,3.4336 0.226563,0.64062 0.515625,1.26562 0.921875,1.8125 0.199219,0.27734 0.46875,0.48828 0.691406,0.74609 -0.742187,-0.0273 -1.472656,-0.17969 -2.195312,-0.34375 -0.132813,-0.34375 -0.328125,-0.66797 -0.601563,-0.92187 -0.402343,-0.38672 -0.941406,-0.60157 -1.484375,-0.69141 -1.148437,-0.19141 -2.320312,0.0937 -3.382812,0.52344 -0.929688,0.38672 -1.796875,0.92578 -2.585938,1.55078 1.035156,0.6875 2.125,1.30469 3.296875,1.72265 0.492188,0.17188 0.996094,0.31641 1.515625,0.37891 0.644532,0.0898 1.324219,0.0469 1.914063,-0.23437 0.6875,-0.33594 1.179687,-1.00391 1.394531,-1.73047 0.683594,0.1914 1.378906,0.34375 2.085938,0.39843 2.75,0.21875 5.496092,-0.16015 8.226562,-0.42578 0.28125,-0.0195 0.56641,-0.0312 0.84766,0.004 -0.39844,0.30469 -0.8086,0.60937 -1.13672,0.99219 -0.84766,0.91015 -1.59766,1.91015 -2.30469,2.93359 -0.38672,-0.24219 -0.83594,-0.40625 -1.30078,-0.36719 -0.898439,0.0703 -1.671876,0.62891 -2.277345,1.26172 -0.738281,0.80469 -1.265625,1.77735 -1.621094,2.80469 0.65625,0.0703 1.316407,0.0312 1.976563,-0.0195 0.671875,-0.0703 1.34375,-0.19141 1.980466,-0.42969 0.42578,-0.17187 0.84375,-0.39062 1.15625,-0.73047 0.34375,-0.34765 0.54297,-0.83594 0.52735,-1.32422 0.0156,-0.28906 -0.0508,-0.57031 -0.0781,-0.85937 0.33594,-0.3125 0.61328,-0.6875 0.97656,-0.97656 -0.0273,0.91015 0.42188,1.75781 0.98438,2.4414 0.53516,0.6211 1.16016,1.17188 1.86719,1.58594 0.21093,-0.69922 0.33203,-1.42578 0.41015,-2.15234 0.0156,-0.53125 0.0391,-1.07032 -0.0781,-1.59375 -0.10156,-0.50782 -0.32813,-1.00782 -0.72266,-1.35157 -0.26562,-0.21484 -0.58984,-0.34765 -0.91797,-0.4375 0.004,-0.0156 0.0156,-0.0391 0.0234,-0.0547 0.89063,-0.84375 1.79297,-1.67969 2.70313,-2.50391 0.3789,-0.0234 0.7539,-0.0703 1.1289,-0.12109 -0.17187,0.33984 -0.35156,0.67968 -0.44922,1.04687 -0.35156,1.23438 -0.19922,2.55469 0.15235,3.77344 0.27734,0.94922 0.68359,1.85937 1.1875,2.71094 0.71875,-0.70704 1.35156,-1.5 1.94531,-2.3125 0.32422,-0.45704 0.59375,-0.95313 0.84766,-1.44922 0.28515,-0.60547 0.53515,-1.23828 0.60156,-1.90625 0.0234,-0.48047 0.0312,-0.97657 -0.14844,-1.4336 -0.16406,-0.51172 -0.54687,-0.89843 -0.89453,-1.28906 2.15625,-0.67969 4.28516,-1.44922 6.40625,-2.24609 2.26562,-0.85547 4.52344,-1.74219 6.76562,-2.66407 0.16797,-0.082 0.34375,0.0195 0.50782,0.0586 3.75781,1.08594 7.51953,2.14844 11.29687,3.16015 1.1875,0.32813 2.38281,0.63282 3.57031,0.96485 1.44922,0.40625 2.86328,0.9414 4.21875,1.60156 1.23828,0.62891 2.42969,1.36328 3.47657,2.28516 0.59765,0.51562 1.14453,1.09765 1.59765,1.74609 0.0664,0.0977 0.1211,0.20313 0.14453,0.32031 -1.47265,0.75782 -3.03906,1.33203 -4.66406,1.66407 0.20703,-0.53516 0.37109,-1.10938 0.27734,-1.6836 -0.0977,-0.80469 -0.55078,-1.52344 -1.12109,-2.08203 -0.92969,-0.88281 -2.11719,-1.44141 -3.33594,-1.80469 -1.3789,-0.41406 -2.82031,-0.57031 -4.25781,-0.55468 0.38281,1.16406 0.84375,2.30468 1.42969,3.38281 0.55078,0.99219 1.19531,1.95312 2.05078,2.70703 0.21875,0.1875 0.46484,0.33984 0.67969,0.53125 -0.9375,0.0352 -1.87891,-0.0117 -2.8125,-0.0937 0.0391,-0.61719 -0.27735,-1.22266 -0.75782,-1.59766 -0.42187,-0.33593 -0.92968,-0.55468 -1.44921,-0.6875 -1.26563,-0.3164 -2.60547,-0.22265 -3.86329,0.0937 0.53125,0.82813 1.10938,1.63672 1.83204,2.3125 0.36718,0.3711 0.78906,0.6875 1.2539,0.92969 0.4336,0.21094 0.92969,0.35938 1.41797,0.28125 0.52344,-0.0625 1.00391,-0.34766 1.35547,-0.73437 0.45312,0.0312 0.89453,0.15234 1.34766,0.17968 -0.73438,0.66407 -1.08985,1.64063 -1.21094,2.59766 -0.0703,0.45312 -0.0547,0.91406 -0.0508,1.36719 0.96484,-0.34766 1.92187,-0.76563 2.71484,-1.42969 0.40625,-0.33594 0.76172,-0.77344 0.89063,-1.29688 0.0937,-0.40625 0.008,-0.82421 -0.16797,-1.19531 1.20312,-0.0391 2.40625,-0.14844 3.60156,-0.26953 -0.23047,0.36328 -0.48438,0.71875 -0.66016,1.11719 -0.59375,1.28515 -0.82031,2.71484 -0.78906,4.125 0,0.20312 0,0.40234 0.008,0.60547 1.01172,-0.32813 1.99219,-0.76172 2.92188,-1.28125 0.92578,-0.53125 1.82031,-1.16797 2.45703,-2.03907 0.4375,-0.60546 0.69531,-1.37109 0.57422,-2.12109 -0.0469,-0.35156 -0.1836,-0.67969 -0.32813,-1 0.73828,-0.12891 1.47657,-0.25391 2.20703,-0.40625 0.22266,0.61719 0.62891,1.14844 0.98829,1.69531 1.4414,2.04297 3.0039,4 4.57421,5.94532 0.17969,0.22265 0.3711,0.4375 0.53125,0.67578 -0.52343,0.33593 -1.08984,0.60156 -1.66406,0.83984 -0.1875,0.0742 -0.37109,0.17188 -0.57422,0.20313 -0.14843,-0.44141 -0.28906,-0.89063 -0.48828,-1.3125 -0.77734,0.63281 -1.51562,1.32031 -2.14844,2.09765 -0.13671,0.20703 -0.40234,0.19922 -0.61328,0.27344 -0.63672,0.17187 -1.28125,0.32422 -1.92578,0.46875 0.004,-0.58594 -0.24609,-1.13672 -0.58984,-1.59766 -0.44922,-0.60937 -1.05078,-1.08984 -1.69922,-1.46875 -0.19922,0.76953 -0.32031,1.57032 -0.26172,2.36719 0.0273,0.39063 0.13672,0.77344 0.29688,1.12891 -2.03907,0.32812 -4.1211,0.53125 -6.1836,0.32031 0.004,-0.0156 0.0117,-0.0469 0.0156,-0.0625 0.46093,-0.37109 0.52734,-1.03516 0.39843,-1.57813 -0.24218,-1.02343 -0.98828,-1.8164 -1.75781,-2.48437 -0.0156,0.0391 -0.0469,0.11719 -0.0586,0.15625 -0.24219,0.57031 -0.42969,1.16797 -0.52735,1.78125 -0.0937,0.62109 -0.0781,1.30078 0.28125,1.84375 -0.70703,-0.19531 -1.39843,-0.42969 -2.08593,-0.67969 0.16797,-0.16797 0.38672,-0.28515 0.52343,-0.48047 0.35547,-0.47656 0.42579,-1.11718 0.30469,-1.6875 -0.1914,-0.98828 -0.76953,-1.84765 -1.43359,-2.58203 -0.53125,0.88672 -0.9961,1.85547 -1.08203,2.90235 -0.043,0.46093 0.0859,0.92187 0.32812,1.3125 -0.67969,-0.24219 -1.32812,-0.5625 -2,-0.82422 -0.0156,-0.0195 -0.0469,-0.0625 -0.0664,-0.0859 0.69531,-0.54297 1.17187,-1.37891 1.20703,-2.26563 0.0742,-1.26562 -0.50782,-2.46484 -1.26172,-3.44531 -0.97266,-1.23047 -2.22266,-2.22656 -3.59375,-2.98437 -0.29688,1.16797 -0.42578,2.375 -0.46875,3.57422 0.008,1.21875 0.1289,2.48437 0.72656,3.57421 -0.70312,-0.32812 -1.37891,-0.70312 -2.07422,-1.04687 0.082,-0.52734 -0.0156,-1.09375 -0.35156,-1.52344 -0.53516,-0.69922 -1.40234,-1.04297 -2.23828,-1.22265 -1.10547,-0.23829 -2.25,-0.16407 -3.35156,0.043 0.41406,0.76954 0.90625,1.4961 1.48047,2.15235 0.48437,0.52344 1.00781,1.03515 1.66406,1.33984 0.59375,0.28906 1.32031,0.32813 1.91797,0.0312 0.21875,-0.0977 0.38671,-0.26953 0.59375,-0.3789 0.20703,0.043 0.3789,0.17578 0.5664,0.26171 0.5,0.25 1.00391,0.49219 1.50781,0.73829 0.4375,0.21093 0.89844,0.38281 1.28516,0.68359 0.40234,0.29297 0.89453,0.39844 1.35547,0.55078 2.20312,0.99609 4.39844,1.99609 6.61328,2.95703 0.0234,0.0352 0.0508,0.0703 0.0742,0.10938 -0.35938,0.0547 -0.72656,0.0234 -1.08984,0.0625 -0.36329,0.043 -0.73047,0.0156 -1.09375,0.0547 -0.27344,0.0273 -0.5586,0.0586 -0.82813,-0.0234 -1.77734,-0.4336 -3.52344,-0.99219 -5.26953,-1.55078 -0.14453,-0.38282 -0.44531,-0.71094 -0.83203,-0.85938 -0.45703,-0.17578 -0.96875,-0.17969 -1.44531,-0.0781 -0.92579,0.17968 -1.75391,0.67187 -2.48438,1.25 0.78125,0.49609 1.61719,0.92968 2.52734,1.1289 0.52735,0.10156 1.1211,0.11719 1.58985,-0.1914 0.32422,-0.1875 0.5039,-0.53516 0.64453,-0.86719 0.69531,0.19922 1.39062,0.40234 2.08203,0.61328 0.23438,0.0781 0.48438,0.12109 0.70313,0.24609 -1.03516,0.25782 -1.91797,0.92578 -2.60547,1.72657 -0.77735,0.89453 -1.34766,1.95703 -1.76172,3.0664 -0.0742,0.20313 -0.14453,0.41406 -0.21485,0.6211 1.39454,0.0273 2.80079,-0.0742 4.15235,-0.42579 0.89844,-0.25 1.8164,-0.62109 2.45703,-1.32421 0.35156,-0.38672 0.57031,-0.89063 0.625,-1.41016 0.0625,-0.35938 -0.0273,-0.71875 -0.0586,-1.07813 0.41015,0.0312 0.85937,-0.082 1.22265,0.15235 0.72266,0.39453 1.32813,0.97656 1.85156,1.60547 0.34375,0.41797 0.66016,0.87109 0.88282,1.36718 0.1289,0.30079 0.25,0.64063 0.125,0.96094 -0.0664,0.0625 -0.13672,0.12891 -0.20313,0.19531 -1.14453,0.20313 -2.26562,0.51954 -3.39062,0.80079 -4.06641,1.0625 -8.11719,2.18359 -12.16406,3.30859 -0.28516,0.0352 -0.5625,-0.10156 -0.83985,-0.14844 -0.3125,-0.0547 -0.60937,-0.16406 -0.89453,-0.30859 0.0977,-0.41797 0.0703,-0.8711 -0.14062,-1.25 -0.3711,-0.6836 -1.0586,-1.125 -1.76563,-1.40235 -0.48047,-0.1875 -0.98828,-0.30078 -1.49609,-0.36718 0.18359,0.91797 0.45312,1.84375 0.97656,2.63281 0.15234,0.22656 0.33203,0.43359 0.54687,0.60156 -0.34375,0.23047 -0.70703,0.4336 -1.01171,0.72266 -0.3711,0.29687 -0.66797,0.67187 -0.96485,1.03906 0.91406,0.28906 1.86328,0.54297 2.82813,0.48047 -0.004,0.0195 -0.0156,0.0586 -0.0195,0.0742 -0.46875,0.30469 -0.92188,0.64453 -1.41016,0.92187 -0.52734,0.26563 -1.10938,0.40235 -1.68359,0.52735 -1.16016,0.22265 -2.33594,0.33593 -3.51563,0.39062 -1.42187,0.0859 -2.85156,0.0625 -4.27734,-0.0273 -1.33203,-0.10156 -2.6836,-0.22656 -3.96094,-0.64844 -0.78125,-0.25 -1.37109,-0.86328 -1.83594,-1.51172 -0.24219,-0.34375 -0.46875,-0.70312 -0.64453,-1.08594 0.38672,0.16016 0.8125,0.26563 1.22656,0.16016 0.875,-0.1875 1.55078,-0.83594 2.08203,-1.51953 0.98829,-1.32422 1.51954,-2.94531 1.71485,-4.57422 -1.28125,0.15625 -2.55078,0.44141 -3.76172,0.89063 -0.76563,0.30468 -1.53516,0.67578 -2.10156,1.28906 -0.19141,0.1914 -0.31641,0.42969 -0.44922,0.66406 -0.34375,-1.07422 -0.65235,-2.16406 -0.9336,-3.25391 -0.0625,-0.42968 -0.21484,-0.83593 -0.26953,-1.26562 0.30078,0.18359 0.57032,0.42969 0.90625,0.55078 0.36719,0.14063 0.77344,0.19531 1.16407,0.13281 0.51562,-0.0352 0.97656,-0.30078 1.41796,-0.55078 0.87891,-0.58594 1.55079,-1.42578 2.10157,-2.3164 0.98437,-1.6211 1.55078,-3.47266 1.78125,-5.35157 -1.19532,0.16407 -2.38672,0.38672 -3.54688,0.71485 -1.08594,0.29687 -2.14844,0.70312 -3.1289,1.26562 -0.26172,0.17188 -0.53125,0.33594 -0.76563,0.54688 -0.0742,0.0625 -0.16016,0.10937 -0.24609,0.15625 0.0156,-1.03125 0.13672,-2.05469 0.23047,-3.07813 0.36718,-0.11719 0.71484,-0.33203 0.92578,-0.66406 0.34765,-0.51563 0.38281,-1.17578 0.30078,-1.77344 -0.17969,-1.17578 -0.79297,-2.23437 -1.53906,-3.14062 -0.55079,0.78906 -1.03516,1.64062 -1.32422,2.5664 -0.1836,0.63282 -0.29297,1.34375 -0.0117,1.96875 0.17578,0.41797 0.53906,0.72266 0.9375,0.91797 0.004,0.25781 -0.0625,0.50391 -0.11328,0.75 -0.31641,1.8711 -0.65625,3.73828 -0.96485,5.60938 -0.38672,-0.28125 -0.742185,-0.60157 -1.124998,-0.89063 0,-0.0352 -0.0078,-0.0664 -0.01562,-0.10156 0.429687,-0.23438 0.683588,-0.71484 0.687498,-1.19922 0.043,-0.87109 -0.355467,-1.69922 -0.855467,-2.39062 -0.230469,-0.33594 -0.523438,-0.61719 -0.796875,-0.91797 -0.503906,0.93359 -0.925782,1.95703 -0.929688,3.03515 -0.382812,-0.26562 -0.71875,-0.59765 -1.101562,-0.87109 -0.671875,-0.55078 -1.339844,-1.10547 -2.027344,-1.63672 0.08984,-0.62891 -0.07422,-1.29297 -0.472656,-1.78516 -0.546875,-0.68359 -1.371094,-1.07421 -2.203125,-1.28906 -1.609375,-0.40234 -3.3125,-0.26172 -4.898438,0.16406 0.613281,0.95313 1.300781,1.85938 2.105469,2.66016 0.5625,0.53125 1.167969,1.03516 1.878906,1.35938 0.523438,0.23828 1.109375,0.3789 1.683594,0.28906 0.589844,-0.0898 1.132812,-0.38672 1.542969,-0.8125 0.02734,0.004 0.07813,0.008 0.105469,0.0117 0.492187,0.47265 1,0.93359 1.507812,1.38672 0.0078,0.0234 0.02734,0.0703 0.03516,0.0937 -1.023437,0.0117 -1.960937,0.55859 -2.671875,1.26171 -0.152343,0.16016 -0.3125,0.31641 -0.457031,0.48438 0.472656,0.22656 0.96875,0.38672 1.476562,0.50391 0.625,0.14843 1.289063,0.25 1.917969,0.0664 0.386719,-0.082 0.738281,-0.34375 0.917969,-0.69531 0.07031,-0.12109 0.125,-0.25 0.179688,-0.375 0.01953,0.004 0.05469,0.0117 0.07422,0.0117 1.273438,1.18359 2.558594,2.35547 3.843754,3.52734 0.0195,0.47266 0.14843,0.92969 0.29297,1.375 -0.0234,-0.008 -0.0742,-0.0234 -0.0977,-0.0312 -0.96875,-0.45312 -2.078126,-0.49219 -3.121095,-0.36328 -1.394531,0.17969 -2.734375,0.66797 -3.964844,1.33984 0.699219,0.69141 1.460938,1.32032 2.277344,1.86719 0.742187,0.51172 1.546875,0.94922 2.40625,1.22266 0.71875,0.22265 1.503905,0.3164 2.226565,0.0703 0.54297,-0.17187 0.99219,-0.54687 1.33594,-0.98828 0.0312,-0.008 0.0898,-0.0195 0.11718,-0.0273 0.008,0.0312 0.0156,0.0859 0.0234,0.11718 0.75391,1.78125 1.55469,3.53907 2.37891,5.28907 -2.64063,-0.54688 -5.281254,-1.08204 -7.925785,-1.58594 -1.320313,-0.23828 -2.644531,-0.47266 -3.9375,-0.83203 -1.242187,-0.33594 -2.460937,-0.76172 -3.65625,-1.23828 -0.804687,-0.32422 -1.59375,-0.6875 -2.386719,-1.03907 -0.445312,-0.25 -0.910156,-0.46093 -1.359375,-0.69531 -0.320312,-0.125 -0.609375,-0.3125 -0.914062,-0.47266 -0.78125,-0.38671 -1.535157,-0.83593 -2.300781,-1.2539 -1.277344,-0.71094 -2.515626,-1.48047 -3.773438,-2.22266 -0.246094,-0.16406 -0.5,-0.32031 -0.761719,-0.45703 0.02344,-0.28125 -0.03906,-0.55859 -0.05859,-0.83594 0,-0.47656 -0.101563,-0.94531 -0.113282,-1.41797 -0.222656,-2.53125 -0.445312,-5.05859 -0.675781,-7.58984 -0.171875,-1.66016 -0.289063,-3.32422 -0.519531,-4.97656 0.07813,-0.42188 0.367187,-0.77344 0.664062,-1.0625 0.07422,0.36719 0.265625,0.71484 0.5625,0.94922 0.523438,0.42578 1.199219,0.60156 1.859375,0.67187 0.660157,0.0664 1.332031,0 1.984375,-0.14062 -0.496094,-0.82032 -1.0625,-1.6211 -1.828125,-2.21094 -0.191406,-0.15234 -0.410156,-0.25781 -0.628906,-0.36719 0.167969,-0.17969 0.414063,-0.2539 0.617187,-0.38281 0.28125,-0.15234 0.53125,-0.36328 0.824219,-0.48828 0.265625,0.5039 0.765625,0.84375 1.296875,1.01562 0.960938,0.31641 2.003906,0.23828 2.972656,0.004 0.683594,-0.16016 1.335938,-0.42578 1.96875,-0.73047 -0.699218,-0.72266 -1.476562,-1.37891 -2.339843,-1.89453 -0.433594,-0.25 -0.886719,-0.47656 -1.371094,-0.60156 0.214844,-0.28907 0.476563,-0.53907 0.695313,-0.82422 0.695312,-0.84375 1.316406,-1.7461 1.863281,-2.6875 0.164062,-0.28906 0.335937,-0.57422 0.464843,-0.87891 0.570313,0.21875 1.214844,0.22656 1.796876,0.0469 0.425781,-0.17578 0.835937,-0.42578 1.109374,-0.80469 0.644532,-0.875 0.828126,-1.98828 0.855469,-3.05078 -0.0039,-1.11719 -0.195312,-2.22656 -0.515625,-3.29688 -0.324218,-1 -0.710937,-1.98437 -1.25,-2.89062 -0.808594,0.71094 -1.53125,1.50781 -2.226562,2.32422 -0.644532,0.80078 -1.265625,1.63281 -1.714844,2.5625 -0.273438,0.52734 -0.476562,1.09375 -0.578125,1.67968 -0.144531,0.86719 0.105469,1.82422 0.757813,2.4336 0.316406,0.28515 0.675781,0.51953 1.050781,0.71484 -0.199219,0.44141 -0.492188,0.83203 -0.753907,1.23828 -0.167968,0.20703 -0.335937,0.41016 -0.492187,0.62891 -0.02344,0.0117 -0.07813,0.0352 -0.105469,0.0469 -0.1875,-0.98046 -0.804687,-1.80859 -1.484375,-2.50781 -0.230469,0.44531 -0.476562,0.88672 -0.628906,1.36719 -0.21875,0.67187 -0.390625,1.41406 -0.171875,2.10937 0.08594,0.30469 0.300781,0.54688 0.535156,0.75391 -0.652344,0.51563 -1.3125,1.02734 -2.023437,1.46484 0.0625,-1.19531 -0.308594,-2.37109 -0.878907,-3.41015 -0.6875,0.69922 -1.347656,1.44531 -1.789062,2.32812 -0.285156,0.57813 -0.496094,1.24219 -0.347656,1.89063 0.05859,0.27734 0.210937,0.52344 0.367187,0.75781 -0.496093,0.22266 -0.976562,0.48828 -1.484375,0.68359 -0.273437,-1.15234 -0.445312,-2.32421 -0.710937,-3.48046 -0.148438,-0.69532 -0.265625,-1.40235 -0.320313,-2.11329 0.488282,0.17188 1.015625,0.23829 1.523438,0.125 1.023437,-0.19531 1.871094,-0.90234 2.484375,-1.71484 0.230469,-0.32812 0.441406,-0.66406 0.640625,-1.00781 0.429687,-0.81641 0.726562,-1.69531 0.933594,-2.58985 -1.28125,0.10157 -2.570313,0.28907 -3.785157,0.72657 -0.664062,0.23047 -1.289062,0.57031 -1.832031,1.01562 0.121094,-0.85547 0.339844,-1.6914 0.515625,-2.53906 0.488281,0.23828 0.996094,0.45312 1.539063,0.50391 0.726562,0.0703 1.472656,-0.0547 2.132812,-0.36329 1.242188,-0.60937 2.226562,-1.65234 2.925781,-2.82812 0.53125,-0.82813 0.90625,-1.74609 1.21875,-2.67578 0.136719,-0.46484 0.304688,-0.92969 0.355469,-1.41797 -1.296875,0.10938 -2.589844,0.28125 -3.847656,0.61719 -0.515625,0.11328 -1.023438,0.28125 -1.515625,0.47656 -0.269531,0.0859 -0.511719,0.24609 -0.789063,0.31641 0.08594,-0.17969 0.1875,-0.35157 0.277344,-0.53125 0.488281,-0.8125 0.996094,-1.61719 1.574219,-2.36719 0.605469,0.0703 1.25,-0.0234 1.757812,-0.37891 0.757813,-0.51953 1.15625,-1.41406 1.324219,-2.28906 0.128906,-0.58594 0.121094,-1.18359 0.105469,-1.77734 -0.05469,-1.06641 -0.324219,-2.11328 -0.691407,-3.11328 -0.855468,0.57031 -1.625,1.26562 -2.332031,2.01171 -0.585937,0.64844 -1.132812,1.35938 -1.429687,2.19141 -0.226563,0.61719 -0.273438,1.32813 -0.01172,1.94531 0.164063,0.40235 0.441406,0.74219 0.746094,1.04297 -0.300781,0.21094 -0.519531,0.51172 -0.804688,0.7461 0.09766,-1.2461 -0.34375,-2.46485 -0.976562,-3.51563 -1.042969,-1.71875 -2.5625,-3.10547 -4.242188,-4.1875 -0.410156,1.28516 -0.710937,2.60547 -0.851562,3.94922 -0.113281,1.20312 -0.117188,2.44922 0.25,3.61328 0.238281,0.74609 0.664062,1.46094 1.3125,1.92188 0.78125,0.57812 1.792969,0.76953 2.75,0.73828 -0.175781,0.26953 -0.277344,0.57422 -0.449219,0.84765 -0.09766,0.16407 -0.164062,0.34375 -0.246094,0.51953 -0.390625,0.70703 -0.6875,1.46485 -0.953125,2.22657 -0.113281,0.23046 -0.171875,0.48046 -0.292969,0.70703 -1.085937,-1.67969 -2.800781,-2.85938 -4.625,-3.6211 -0.171874,1.26172 -0.207031,2.54297 -0.04297,3.80469 0.121094,0.85938 0.324218,1.72656 0.78125,2.47266 0.273437,0.44531 0.644531,0.83593 1.101562,1.08203 0.542969,0.29687 1.175782,0.3789 1.78125,0.34375 -0.09375,0.92578 -0.03516,1.85937 0.0625,2.78125 -0.02344,-0.008 -0.07031,-0.0273 -0.08984,-0.0352 -0.851562,-0.67187 -1.855468,-1.11719 -2.886718,-1.43359 -0.757813,-0.23438 -1.539063,-0.36719 -2.320313,-0.46875 0.15625,0.95312 0.421875,1.88672 0.753907,2.79297 0.347656,0.90234 0.773437,1.79297 1.40625,2.53515 0.496093,0.59375 1.171874,1.08985 1.953124,1.21094 0.597657,0.10938 1.207032,-0.0312 1.761719,-0.24219 0.128907,1.14453 0.328125,2.28516 0.476563,3.42578 0.300781,2.02735 0.515625,4.0625 0.671875,6.10157 0.01953,0.51562 0.08203,1.02734 0.08594,1.54297 0.06641,0.48828 0.02344,0.98046 0.08203,1.46875 0.02344,0.46093 0.01562,0.92187 0.02734,1.38281 0.0625,0.6914 0.03125,1.39062 0.03906,2.08594 -0.0078,0.43359 0.02344,0.875 -0.05078,1.30859 -0.03906,-0.0156 -0.07812,-0.0312 -0.117187,-0.0469 -0.1875,-0.35156 -0.492187,-0.61718 -0.734375,-0.92968 -0.617188,-0.6836 -1.320312,-1.28125 -2.070312,-1.82032 -0.632813,-0.46093 -1.160157,-1.03906 -1.710938,-1.58984 -0.402344,-0.46094 -0.789062,-0.93359 -1.152344,-1.42578 -0.285156,-0.42969 -0.59375,-0.84375 -0.875,-1.27734 -0.164062,-0.26954 -0.371094,-0.50782 -0.527344,-0.78125 -0.214843,-0.36329 -0.453124,-0.71485 -0.699218,-1.0586 -0.351563,-0.58984 -0.789063,-1.12109 -1.15625,-1.70312 -1.023438,-1.58985 -1.851563,-3.30078 -2.578125,-5.04297 -0.730469,-1.51953 -1.570313,-2.98047 -2.414063,-4.44141 0.65625,0.0625 1.324219,0 1.9375,-0.23828 0.734375,-0.29687 1.398438,-0.78516 1.875,-1.41797 1.011719,-1.29297 1.445313,-2.9414 1.585938,-4.55469 0.09766,-1.23046 0.02344,-2.46875 -0.167969,-3.68359 -0.8125,0.34375 -1.585937,0.77734 -2.339844,1.23438 -1.136719,0.66796 -2.207031,1.46093 -3.117187,2.41406 -0.664063,0.71484 -1.246094,1.54687 -1.472656,2.51172 -0.07813,0.28906 -0.07031,0.59375 -0.09766,0.89453 -0.02344,-0.0195 -0.07422,-0.0586 -0.09766,-0.0781 -0.332031,-0.5039 -0.691406,-0.98828 -1.039063,-1.48437 0.761719,-0.19531 1.449219,-0.70313 1.828126,-1.39844 0.488281,-0.83203 0.542968,-1.83984 0.421874,-2.77734 -0.199218,-1.45703 -0.832031,-2.82813 -1.640624,-4.04688 -0.417969,0.53907 -0.871094,1.05078 -1.238282,1.625 -0.777344,1.10938 -1.425781,2.36328 -1.570312,3.72656 -0.519532,-0.57421 -0.996094,-1.1875 -1.511719,-1.76953 -0.144531,-0.15234 -0.285156,-0.3164 -0.402344,-0.49218 0.195313,0.0703 0.378907,0.20703 0.597657,0.17187 0.769531,-0.0586 1.542968,-0.34766 2.089843,-0.90625 0.613281,-0.58984 0.941407,-1.41797 1.082031,-2.24219 0.1875,-1.08203 0.07422,-2.19921 -0.175781,-3.26562 -0.347656,-1.49219 -1.003906,-2.89844 -1.808593,-4.20313 -0.988282,1.05469 -1.890626,2.19532 -2.628907,3.4375 -0.578125,0.98829 -1.058593,2.0586 -1.214843,3.20313 -0.03516,0.35547 -0.01563,0.71094 -0.01172,1.06641 -0.332031,-0.17579 -0.652344,-0.37891 -1,-0.52344 -0.304688,-0.11328 -0.484375,-0.40235 -0.734375,-0.59766 -0.269532,-0.20312 -0.484375,-0.46094 -0.734375,-0.6875 0.574219,-0.27344 1.128906,-0.60937 1.582031,-1.05859 0.699219,-0.69922 1.003906,-1.73438 0.867188,-2.70703 -0.199219,-1.39453 -0.910157,-2.64844 -1.699219,-3.79297 -0.714844,-1.02344 -1.539063,-1.96485 -2.394531,-2.86719 -0.515626,-0.51953 -1.035157,-1.03516 -1.585938,-1.50781 -0.285156,0.48047 -0.472656,1.01172 -0.683594,1.53125 -0.554687,1.47656 -0.921875,3.03125 -1.023437,4.60937 -0.07813,1.32032 0.02344,2.67969 0.507812,3.91797 0.253907,0.63672 0.636719,1.23828 1.183594,1.66016 0.449219,0.38672 1.046875,0.55469 1.628906,0.58203 0.238281,0.0117 0.46875,-0.0703 0.703125,-0.0469 0.164063,0.0625 0.273438,0.20704 0.378906,0.33985 -1.730468,-0.28125 -3.511718,-0.25 -5.234374,0.0937 0.480468,0.86328 0.980468,1.71875 1.5625,2.51953 0.78125,1.08203 1.660156,2.11328 2.753906,2.88672 0.636718,0.44922 1.359375,0.80859 2.136718,0.91015 0.816407,0.125 1.660157,-0.0977 2.351563,-0.53515 0.378906,-0.2461 0.75,-0.52344 1.035156,-0.87891 0.785157,1 1.59375,1.98438 2.351563,3.00391 1.601562,2.11718 3.152344,4.27734 4.570312,6.52343 0.652344,1.06641 1.335938,2.13282 1.730469,3.32813 0.0039,0.16797 0.06641,0.46875 -0.1875,0.47266 -1.066406,-0.0469 -2.097656,-0.35157 -3.125,-0.63282 -0.410156,-0.13281 -0.820313,-0.27343 -1.230469,-0.40625 0.242188,-0.23437 0.519532,-0.4414 0.695313,-0.73437 0.515625,-0.75391 0.523437,-1.74219 0.257812,-2.58594 -0.429687,-1.39844 -1.386719,-2.5625 -2.460937,-3.52734 -0.566406,-0.50782 -1.1875,-0.95313 -1.835938,-1.35157 -0.01563,-0.0156 -0.04297,-0.0469 -0.05469,-0.0625 -0.3125,1.01563 -0.496094,2.06641 -0.601563,3.1211 -0.01563,0.46094 -0.08203,0.92578 -0.02344,1.38672 0.01563,0.57031 0.105469,1.13672 0.273437,1.68359 -0.375,-0.17578 -0.71875,-0.40625 -1.113281,-0.54297 -0.714844,-0.26562 -1.492187,-0.41797 -2.257813,-0.32031 -0.105468,0.008 -0.210937,0.0117 -0.320312,0.0156 0.175781,-0.33593 0.375,-0.66015 0.484375,-1.02734 0.3125,-0.91406 0.125,-1.92187 -0.28125,-2.77734 -0.628906,-1.22266 -1.671875,-2.1836 -2.824219,-2.91407 -1.226562,-0.76171 -2.566406,-1.33984 -3.96875,-1.70312 0.04297,1.45703 0.226563,2.91406 0.59375,4.32422 0.125,0.5 0.308594,0.98437 0.476563,1.47265 -1.667969,-0.35156 -3.40625,-0.0859 -5.007813,0.4375 0.5625,0.75 1.160156,1.48047 1.839844,2.12891 0.777344,0.71875 1.636719,1.40625 2.660156,1.73047 0.671875,0.21094 1.429688,0.20312 2.058594,-0.13281 0.320312,-0.16407 0.609375,-0.39453 0.851562,-0.66016 0.71875,0.16406 1.460938,0.16406 2.191407,0.11719 -0.1875,0.14844 -0.421875,0.21484 -0.632813,0.32422 -1.144531,0.58203 -2.128906,1.4375 -2.980468,2.38672 -0.554688,0.63671 -1.066407,1.3125 -1.503907,2.03906 1.34375,0.36719 2.726563,0.58984 4.117188,0.67578 0.769531,0.0156 1.546875,0.0352 2.3125,-0.0898 0.75,-0.10157 1.476562,-0.34766 2.140625,-0.71485 0.671875,-0.40625 1.191406,-1.05859 1.433594,-1.80859 0.160156,-0.42578 0.195312,-0.88281 0.230468,-1.33203 0.957032,0.53906 1.964844,0.98047 2.984375,1.375 0.0039,0.0312 0.01172,0.0898 0.01563,0.12109 -0.539062,0.32031 -1.003906,0.76172 -1.351562,1.28516 -0.378906,0.53515 -0.6875,1.11718 -0.890625,1.73828 -0.05859,0.13672 -0.109375,0.27734 -0.160157,0.41797 1.277344,-0.004 2.59375,-0.1211 3.765626,-0.66407 0.4375,-0.22656 0.863281,-0.51562 1.097656,-0.96093 0.183594,-0.27735 0.214844,-0.60547 0.257812,-0.92578 1.117188,0.40625 2.25,0.76953 3.378906,1.1289 0.01953,0.0781 0.03125,0.15625 0.04688,0.23438 0.285156,0.92187 0.644531,1.8164 1.058593,2.68359 0.289063,0.58203 0.558594,1.17578 0.902344,1.72656 0.0039,0.0273 0.0039,0.082 0.0039,0.10938 -0.472656,0.008 -0.941406,0.0625 -1.414062,0.0625 -0.535157,0.0547 -1.074219,0.0312 -1.605469,0.0977 -0.367188,0.004 -0.734375,0.0117 -1.097656,0.0508 -0.585938,0.004 -1.171875,0.0664 -1.757813,0.0781 -0.394531,0.0547 -0.796875,0.0273 -1.191406,0.0625 -0.441406,0.0469 -0.882813,0.0195 -1.320313,0.082 -0.378906,0.004 -0.761718,0.0156 -1.140624,0.0508 -0.566407,0 -1.128907,0.0742 -1.691407,0.0781 -1.480469,0.17578 -2.972656,-0.12891 -4.371093,-0.60547 -1.035157,-0.35156 -2.019532,-0.83594 -2.972657,-1.36328 -1.003906,-0.5586 -1.9375,-1.23438 -2.886719,-1.88281 -1.710937,-1.16407 -3.429687,-2.32422 -5.152343,-3.47266 -1.320313,-0.86328 -2.621094,-1.75 -3.953125,-2.59375 -0.597656,-1.52734 -1.175782,-3.06641 -1.761719,-4.60156 0.550781,0.082 1.132813,-0.0117 1.585937,-0.34766 0.824219,-0.59766 1.253907,-1.58203 1.484376,-2.54297 0.253906,-1.05859 0.261718,-2.16015 0.136718,-3.23437 -0.01172,0.0117 -0.03516,0.0352 -0.05078,0.0469 -0.976563,0.42578 -1.90625,0.98438 -2.730469,1.66406 -0.539062,0.4961 -1.105468,1.02344 -1.347656,1.73047 -0.02734,0.0195 -0.07422,0.0547 -0.101562,0.0742 -0.273438,-0.77734 -0.609376,-1.53125 -0.878907,-2.30859 0.246094,0.11719 0.46875,0.28906 0.714844,0.41015 0.164063,0.0977 0.359375,0.0234 0.53125,-0.0156 0.832031,-0.20313 1.601563,-0.69531 2.078125,-1.41406 0.679688,-0.98047 0.863281,-2.21875 0.800781,-3.38672 -0.144531,-2.07813 -0.980469,-4.04688 -2.058593,-5.80859 -0.789063,0.89843 -1.511719,1.85546 -2.128907,2.88281 -0.65625,1.09765 -1.214843,2.28906 -1.414062,3.5664 l -0.06641,-0.004 c -0.105468,-0.30078 -0.238281,-0.58985 -0.363281,-0.88281 -0.07422,-0.14844 -0.01953,-0.3125 -0.0039,-0.46485 0.183594,-1.60156 0.386719,-3.20312 0.625,-4.80078 0.02734,-0.008 0.08984,-0.0273 0.117187,-0.0352 0.515626,-0.17578 0.976563,-0.52343 1.261719,-0.99218 0.285157,-0.45703 0.386719,-1 0.410157,-1.53125 -0.0078,-1.07422 -0.351563,-2.11719 -0.851563,-3.0586 -0.464844,-0.91406 -1.105469,-1.72265 -1.792969,-2.47656 -0.835937,1.54297 -1.5625,3.21094 -1.65625,4.98828 -0.0078,0.6836 0.109375,1.39844 0.507813,1.96875 0.359375,0.54297 0.953125,0.8711 1.554687,1.07031 -0.304687,1.10938 -0.660156,2.20313 -0.902344,3.32813 -0.292968,-0.082 -0.453124,-0.36328 -0.632812,-0.58594 -1.101562,-1.58203 -2.046875,-3.26953 -3.207031,-4.80859 0.140625,-0.34375 0.277343,-0.70313 0.253906,-1.07813 0.03125,-0.5625 -0.203125,-1.10156 -0.523437,-1.54687 -0.542969,-0.71485 -1.296876,-1.24219 -2.105469,-1.61719 -1.230469,-0.55469 -2.582031,-0.85547 -3.933594,-0.88672 0.339844,1.23438 0.777344,2.44922 1.425781,3.55469 0.464844,0.76172 1.027344,1.50781 1.820313,1.95312 0.582031,0.32813 1.292969,0.42188 1.9375,0.23438 0.214843,-0.0469 0.410156,-0.16016 0.625,-0.20313 0.128906,0.10938 0.222656,0.25391 0.324219,0.38282 0.203124,0.26953 0.4375,0.52343 0.59375,0.82422 -1,-0.36329 -2.113282,-0.125 -3.03125,0.35546 -0.660157,0.33204 -1.257813,0.78516 -1.792969,1.29297 0.972656,0.54297 2.007812,1.00782 3.113281,1.20313 0.648438,0.10547 1.359375,0.10156 1.9375,-0.2461 0.382812,-0.21875 0.640625,-0.60937 0.796875,-1.01562 0.02344,0.004 0.07031,0.008 0.09375,0.008 0.675781,1.125 1.335937,2.26563 1.867187,3.46485 -0.359374,-0.1875 -0.710937,-0.39844 -1.101562,-0.51954 -1.355469,-0.46875 -2.835938,-0.41796 -4.226562,-0.125 -1.269532,0.26954 -2.488282,0.7461 -3.632813,1.34766 0.785156,0.80859 1.652344,1.54297 2.5625,2.21094 0.445313,0.30859 0.882813,0.63281 1.367187,0.86718 -0.164062,1.44922 -0.125,2.95313 0.367188,4.33985 -1,-0.47266 -1.960938,-1.03125 -2.980469,-1.45703 -0.03125,-0.55078 -0.253906,-1.08985 -0.640625,-1.48438 -0.640625,-0.67187 -1.566406,-0.98828 -2.464844,-1.13281 -1.410156,-0.22656 -2.859374,-0.0195 -4.226562,0.375 -0.136719,0.043 -0.277344,0.0898 -0.417969,0.13281 0.636719,0.83203 1.304688,1.65235 2.089844,2.34766 0.636719,0.5664 1.335937,1.09765 2.136719,1.40625 0.527344,0.20312 1.113281,0.32031 1.671875,0.19922 0.613281,-0.10938 1.136719,-0.48438 1.5625,-0.92188 0.0039,-0.0312 0.01172,-0.0898 0.01563,-0.12109 0.21875,-0.043 0.402344,0.0898 0.585937,0.17969 0.210938,0.10156 0.425781,0.1914 0.613281,0.33593 -0.910156,0.12891 -1.664062,0.74219 -2.210937,1.44532 -0.535156,0.69921 -0.90625,1.50781 -1.164063,2.34375 1.15625,0 2.339844,-0.10938 3.429688,-0.52344 0.597656,-0.23438 1.191406,-0.60156 1.480469,-1.19531 0.203125,-0.38672 0.195312,-0.83204 0.15625,-1.25391 2.078125,1.05859 4.125,2.1875 6.109375,3.41797 0.949218,0.59375 1.886718,1.21484 2.78125,1.89453 2.421875,1.90234 4.828125,3.82031 7.296875,5.66406 0.0078,0.0195 0.02344,0.0664 0.02734,0.0859 -1.632812,0.043 -3.269531,-0.004 -4.894531,-0.14844 0.265625,-0.5 0.457031,-1.05859 0.421875,-1.6289 -0.04687,-0.94922 -0.589844,-1.79688 -1.265625,-2.42969 -0.808593,-0.75781 -1.808593,-1.28125 -2.847656,-1.64844 -0.675781,-0.23437 -1.371094,-0.42187 -2.078125,-0.52734 0.148438,1.05859 0.394531,2.10547 0.753906,3.10937 0.242188,0.65235 0.53125,1.29297 0.925782,1.86719 0.179687,0.27734 0.410156,0.51953 0.621093,0.77734 -0.457031,-0.0742 -0.90625,-0.1875 -1.355469,-0.29687 -0.226562,-0.0586 -0.464843,-0.10547 -0.667968,-0.22656 -0.214844,-0.12891 -0.449219,-0.23438 -0.695313,-0.28516 -0.1875,-0.0469 -0.382812,-0.0312 -0.566406,-0.0898 -0.484375,-0.17188 -0.941406,-0.40625 -1.402344,-0.62891 0.140625,-0.46875 0.15625,-0.98047 -0.05078,-1.42969 -0.363281,-0.85547 -1.175781,-1.41406 -1.996094,-1.79297 -0.875,-0.39062 -1.828125,-0.60547 -2.78125,-0.66406 -0.273437,-0.0547 -0.554687,-0.0273 -0.832031,-0.043 0.273437,0.94531 0.675781,1.85547 1.175781,2.70313 0.261719,0.43359 0.558594,0.85156 0.929688,1.20312 0.441406,0.47266 1.039062,0.84766 1.703125,0.89063 0.371093,0.0469 0.726562,-0.0781 1.078125,-0.17188 0.222656,0.0547 0.433594,0.14453 0.648437,0.21875 -0.0039,0.0156 -0.01172,0.0547 -0.01563,0.0703 -0.882812,0.35938 -1.648437,0.94922 -2.324218,1.61329 0.960937,0.5 1.980468,0.92578 3.054687,1.09765 0.671875,0.10547 1.414063,0.0937 2.007813,-0.27734 0.460937,-0.27344 0.730468,-0.77735 0.851562,-1.28516 0.484375,0.0898 0.941406,0.27735 1.417969,0.39844 0.734375,0.21094 1.476562,0.40625 2.234375,0.51172 0.0039,0.15234 0,0.30469 -0.0078,0.46094 -0.222656,0.53515 -0.675781,0.92578 -1.152343,1.23828 -1.265626,0.80468 -2.71875,1.25 -4.148438,1.66797 -0.328125,0.11718 -0.683594,0.0469 -1.023438,0.12109 -0.679687,0.0469 -1.367187,0.0391 -2.03125,-0.125 -0.265624,-0.0625 -0.527343,-0.15234 -0.796874,-0.21484 -0.0039,-0.60157 -0.207032,-1.21485 -0.632813,-1.65235 -0.597656,-0.66406 -1.460937,-1.00781 -2.316406,-1.20312 -1.539063,-0.33985 -3.140625,-0.17188 -4.65625,0.21093 0.609375,0.96094 1.308593,1.8711 2.113281,2.67579 0.632812,0.60156 1.335938,1.16406 2.160156,1.46875 0.605469,0.23046 1.300782,0.26953 1.910156,0.0352 0.371094,-0.13672 0.703126,-0.36328 0.988282,-0.6289 0.664062,0.0625 1.332031,0.0547 1.996094,0.0547 -0.01172,0.0234 -0.03516,0.0625 -0.04297,0.082 -0.910157,0.79297 -1.46875,1.91016 -1.820313,3.04688 1.191406,-0.0195 2.410156,-0.12109 3.523438,-0.57031 0.566406,-0.23438 1.121094,-0.59766 1.394531,-1.16407 0.234375,-0.46875 0.203125,-1.01953 0.07813,-1.51562 0.40625,-0.0547 0.816406,-0.10156 1.21875,-0.16797 -0.542969,1.13281 -0.636719,2.42969 -0.453125,3.65625 0.09766,0.73438 0.292969,1.44922 0.53125,2.14453 0.851563,-0.59375 1.660156,-1.26172 2.363281,-2.02734 0.597656,-0.66016 1.148438,-1.39453 1.421875,-2.25391 0.171875,-0.54687 0.199219,-1.14844 -0.0078,-1.6875 -0.164063,-0.44922 -0.46875,-0.83594 -0.808594,-1.16797 0.414063,-0.3125 0.789063,-0.67968 1.078125,-1.10937 0.242188,-0.375 0.609375,-0.65235 1.003906,-0.84766 0.519532,-0.23437 1.105469,-0.23828 1.660156,-0.18359 1.285157,0.16797 2.550782,0.44922 3.820313,0.70312 0.839844,0.19141 1.6875,0.35157 2.507813,0.60547 0.492187,0.19922 0.894531,0.5586 1.328124,0.85156 0.984376,0.72657 1.964844,1.46094 2.996094,2.1211 0.648438,0.41015 1.308594,0.8125 2.015625,1.11328 0.597657,0.26562 1.226563,0.49219 1.886719,0.50781 2.160156,0.0742 4.296875,-0.34375 6.449219,-0.4375 0.476562,0.0117 0.949219,-0.0547 1.425781,-0.0508 0.441406,-0.008 0.882812,-0.0195 1.324219,-0.0156 0.964843,-0.0625 1.9375,-0.0352 2.90625,-0.0312 0.53125,0.0547 1.066406,0.0117 1.59375,0.0937 0.847656,0.0977 1.703125,0.39453 2.324219,1 0.316406,0.30468 0.484374,0.71875 0.75,1.0664 0.984374,1.375 2.027343,2.71094 3.148437,3.97266 0.914063,1 1.988281,1.83594 3.089844,2.61719 1.472656,1.03515 3.027343,1.95312 4.601562,2.82421 1.800781,0.99219 3.648438,1.91016 5.519531,2.76563 -0.636718,0.53125 -1.425781,0.83594 -2.203124,1.10156 -1.878907,0.58203 -3.84375,0.82031 -5.800782,0.98828 -0.863281,0.0586 -1.730468,0.1211 -2.597656,0.13282 -1.042969,0.0391 -2.085938,0.0703 -3.128906,0.0195 -0.480469,-0.0156 -0.964844,-0.0117 -1.4375,-0.12891 -1.421875,-0.3125 -2.792969,-0.82422 -4.152344,-1.34766 -0.976562,-0.39843 -1.964844,-0.76562 -2.945312,-1.16406 0.542968,-0.34375 1.042968,-0.78515 1.335937,-1.36328 0.511719,-0.97266 0.5,-2.13281 0.222656,-3.17187 -0.480469,-1.80469 -1.609375,-3.35547 -2.898437,-4.66797 -0.136719,-0.13282 -0.261719,-0.28125 -0.425782,-0.38672 -0.339843,0.58984 -0.597656,1.22265 -0.851562,1.85156 -0.542969,1.41406 -0.960938,2.91406 -0.894531,4.44141 0.03125,0.40625 0.09766,0.8125 0.230469,1.19922 0.07422,0.22265 0.191406,0.43359 0.269531,0.65625 -1.027025,-0.50413 -1.987962,-1.13694 -2.9489,-1.75413 0.273438,-0.20313 0.605469,-0.32031 0.84375,-0.57031 0.542969,-0.46485 0.855469,-1.16797 0.90625,-1.87891 0.08203,-0.82031 -0.117188,-1.64844 -0.429688,-2.40234 -0.519531,-1.23047 -1.34375,-2.3086 -2.292968,-3.24219 -0.640625,1.16406 -1.167969,2.40234 -1.441406,3.70312 -0.175782,0.82032 -0.195313,1.67969 0.01562,2.4961 -0.1875,-0.11719 -0.339843,-0.28125 -0.503906,-0.42969 -0.402344,-0.35156 -0.777344,-0.72656 -1.125,-1.12891 -0.472656,-0.5 -0.910156,-1.03515 -1.316406,-1.58984 -0.121094,-0.18359 -0.285156,-0.34766 -0.335938,-0.57031 0.453126,-0.5586 0.535157,-1.35156 0.316407,-2.02735 -0.296875,-0.92968 -0.980469,-1.6875 -1.742188,-2.27343 -1.082031,-0.83203 -2.351562,-1.39453 -3.664062,-1.73438 -0.01563,-0.0156 -0.05078,-0.043 -0.06641,-0.0547 0.01563,1.29297 0.199219,2.59375 0.585938,3.82813 0.3125,0.92969 0.785156,1.87109 1.617188,2.4375 0.648437,0.44922 1.488281,0.50781 2.242187,0.32422 0.296875,0.52344 0.703125,0.96875 1.058594,1.45312 -0.539063,-0.0352 -1.085938,-0.0625 -1.617188,0.0508 -1.097656,0.21875 -2.109375,0.75391 -2.996093,1.42188 -1.273438,0.98047 -2.328126,2.23047 -3.167969,3.59766 1.363281,0.36718 2.761719,0.59375 4.171875,0.67578 1.273437,0.043 2.585937,-0.008 3.78125,-0.4961 0.765625,-0.30859 1.457031,-0.85547 1.84375,-1.59765 0.230468,-0.4336 0.347656,-0.92188 0.410156,-1.41016 0.339844,0.23047 0.652344,0.50391 0.984375,0.75 0.503906,0.375 1.019531,0.74219 1.539063,1.10547 0,0.0195 0.0039,0.0625 0.0039,0.082 -0.601563,0.125 -1.117188,0.49219 -1.554688,0.91016 -0.753906,0.78125 -1.265625,1.77734 -1.570312,2.8164 0.675781,0.0156 1.351562,-0.0391 2.019531,-0.14453 0.691406,-0.125 1.386719,-0.29687 1.996094,-0.66015 0.425781,-0.25782 0.816406,-0.62891 0.972656,-1.11329 0.0625,-0.18359 0.08594,-0.375 0.105469,-0.5625 0.453125,0.21485 0.855468,0.51954 1.292968,0.76563 2.113282,1.27344 4.285157,2.44922 6.484376,3.57031 0.644531,0.32422 1.289062,0.64453 1.945312,0.94531 -0.01172,0.0273 -0.02734,0.082 -0.03516,0.10938 -1.324219,1.18359 -2.855469,2.16016 -4.554688,2.70703 0.08594,-0.38281 0.152344,-0.78125 0.08203,-1.17187 -0.117188,-0.8711 -0.675782,-1.625 -1.367188,-2.13672 -1.105469,-0.82422 -2.480469,-1.19532 -3.832031,-1.34375 -0.628907,-0.0742 -1.257813,-0.0703 -1.886719,-0.0547 0.363281,0.99219 0.816406,1.95312 1.371094,2.85547 0.480468,0.7539 1.03125,1.48437 1.75,2.03125 0.199218,0.15625 0.433594,0.26953 0.625,0.4375 -0.398438,0.0352 -0.804688,0.0625 -1.207032,0.0117 -1.253906,-0.0234 -2.492187,-0.28125 -3.691406,-0.64453 -0.07031,-0.58204 -0.261718,-1.17579 -0.6875,-1.59766 -0.648437,-0.72266 -1.601562,-1.07813 -2.53125,-1.26172 -1.71875,-0.31641 -3.488281,-0.0508 -5.140625,0.45313 0.550781,0.76171 1.132813,1.50781 1.808594,2.16796 0.703125,0.72657 1.492187,1.38282 2.402344,1.83204 0.605469,0.28125 1.285156,0.48437 1.960937,0.38281 0.824219,-0.10156 1.558594,-0.60938 2.050782,-1.26563 0.695312,0.16016 1.378906,0.38282 2.089843,0.48438 -0.01953,0.0391 -0.04297,0.0742 -0.06641,0.11328 -0.675781,0.44922 -1.179687,1.11328 -1.609375,1.79687 -0.425781,0.71094 -0.765625,1.48438 -0.972656,2.28516 1.308594,-0.0352 2.636718,-0.14062 3.878906,-0.57812 0.460938,-0.16797 0.910156,-0.38282 1.292969,-0.6875 0.507812,-0.375 0.847656,-0.97266 0.886719,-1.60547 0.03516,-0.37891 -0.06641,-0.75 -0.140626,-1.1211 1,-0.0742 1.996094,-0.20312 2.96875,-0.45703 -0.460937,1.32031 -0.246093,2.76563 0.207032,4.05469 0.757812,-0.52734 1.460937,-1.14453 2.058594,-1.85156 0.472656,-0.58203 0.890624,-1.27344 0.894531,-2.04297 0.0078,-0.40235 -0.164063,-0.76953 -0.363281,-1.10547 1.199218,-0.51563 2.339843,-1.15625 3.414062,-1.89063 0.507812,-0.36328 1.023438,-0.71875 1.46875,-1.15625 0.875,0.0937 1.753906,0.1875 2.636719,0.17188 2.078125,0.0352 4.152343,-0.21094 6.199219,-0.5625 1.933593,-0.34375 3.839843,-0.80469 5.722656,-1.35547 0.6875,-0.21875 1.390625,-0.39453 2.054687,-0.67578 0.226563,-0.004 0.410157,0.14062 0.609375,0.21875 0.960938,0.40234 1.96875,0.66406 2.972656,0.92578 2.355469,0.58984 4.742188,1.05078 7.132813,1.49219 2.335938,0.42187 4.679688,0.80469 7.027348,1.16015 1.38672,0.19922 2.76953,0.4375 4.17187,0.44532 0.70704,0.0664 1.42188,0.0234 2.13282,0.0352 0.60547,0.0195 1.20703,-0.0547 1.8125,-0.043 2.08203,-0.082 4.16406,-0.24218 6.24609,-0.4375 -0.25391,0.31641 -0.56641,0.58204 -0.84375,0.87891 -0.32422,0.30859 -0.60547,0.66016 -0.92187,0.97656 -0.38672,-0.4414 -0.99219,-0.64843 -1.57032,-0.58984 -1.02343,0.0977 -1.93359,0.67578 -2.67187,1.36328 -0.0391,0.0508 -0.19531,0.15234 -0.0664,0.19922 0.83594,0.42187 1.74219,0.75 2.6836,0.80859 -0.16407,0.16797 -0.3125,0.35547 -0.47266,0.53125 -0.004,0.0273 -0.0156,0.0781 -0.0195,0.10547 -0.50391,0.004 -1.01563,0.1211 -1.4336,0.41797 -0.7539,0.53516 -1.26953,1.33594 -1.60156,2.1875 -0.29297,0.76563 -0.48437,1.57813 -0.52344,2.39844 1.06641,-0.22656 2.13282,-0.51563 3.09766,-1.02735 0.40625,-0.21484 0.80078,-0.46875 1.11719,-0.80078 0.32422,-0.3164 0.57812,-0.72265 0.64844,-1.17187 0.10546,-0.55469 -0.0937,-1.11719 -0.35938,-1.59766 -0.043,-0.0352 -0.0898,-0.0664 -0.13281,-0.0977 0.008,-0.0312 0.0273,-0.0977 0.0352,-0.13282 0.30079,-0.30468 0.5586,-0.65625 0.85157,-0.96875 0.40625,-0.47265 0.83593,-0.92968 1.25781,-1.38672 0.0156,-0.004 0.0469,-0.0195 0.0625,-0.0273 0.0508,0.91406 0.57422,1.72266 1.17578,2.37891 0.1875,0.20703 0.40234,0.39453 0.61719,0.57422 0.28906,-0.67969 0.53125,-1.39063 0.625,-2.125 0.0547,-0.51563 0.0547,-1.06641 -0.19141,-1.53907 -0.15625,-0.30859 -0.43359,-0.54297 -0.75,-0.67187 0.004,-0.0352 0.0117,-0.0977 0.0156,-0.13281 1.02343,-0.95704 2.10156,-1.8711 3.26562,-2.65235 0.54688,-0.33594 1.0586,-0.71875 1.63281,-1.00781 2.02344,-1.03906 4.23828,-1.63672 6.44141,-2.17578 1.33203,-0.30078 2.67187,-0.56641 4.01953,-0.79297 0.0898,-0.0117 0.17969,-0.0117 0.26953,-0.008 -0.15625,0.14453 -0.33594,0.25781 -0.51172,0.3789 0.92188,0.64844 1.95313,1.23828 3.10157,1.30469 -0.75782,0.91016 -1.53125,1.8125 -2.27344,2.73438 -0.32031,-0.15625 -0.69531,-0.10157 -1.02735,-0.008 -0.65625,0.1875 -1.13281,0.76953 -1.35156,1.39453 -0.32031,0.92969 -0.27734,1.94922 -0.0703,2.90235 0.13281,0.60156 0.32812,1.19531 0.58984,1.7539 0.0273,0.0742 0.0977,-0.0117 0.13282,-0.0312 0.85546,-0.73828 1.67187,-1.54687 2.25,-2.52343 0.41406,-0.69141 0.67968,-1.53907 0.41406,-2.33203 -0.1211,-0.28516 -0.28906,-0.55469 -0.52344,-0.76172 0,-0.0195 0.004,-0.0547 0.004,-0.0703 0.32812,-0.35156 0.60937,-0.74218 0.96093,-1.0664 -0.008,0.9414 0.51563,1.78515 1.125,2.46484 0.20313,0.22656 0.4336,0.4336 0.66797,0.62891 0.26172,-0.61719 0.48828,-1.25 0.59375,-1.91406 0.0898,-0.55469 0.11328,-1.15235 -0.12109,-1.67579 -0.17578,-0.39062 -0.52734,-0.67578 -0.93359,-0.79687 0,-0.0195 0.004,-0.0625 0.008,-0.082 0.73047,-0.66016 1.48828,-1.29297 2.29297,-1.85938 0.82031,-0.5625 1.66015,-1.11718 2.59765,-1.46484 0.20313,-0.0781 0.40625,-0.14844 0.60938,-0.22266 2.21875,-0.69531 4.55859,-0.89062 6.875,-0.85547 2.84765,-0.004 5.68359,0.35938 8.48828,0.85157 2.53906,0.45703 5.05469,1.05468 7.52734,1.79297 1.63672,0.50781 3.28516,1.03906 4.82032,1.80859 0.34765,0.18359 0.6875,0.39844 0.93359,0.70312 0.35547,0.42188 0.57812,0.9336 0.73828,1.45704 0.33984,1.28906 0.34375,2.64062 0.20313,3.96093 -0.13672,1.29297 -0.40625,2.58203 -0.84766,3.8086 -0.71484,2.20312 -1.44531,4.39843 -2.16406,6.59765 -1.88282,5.76172 -3.66016,11.5586 -5.48438,17.33985 -0.91406,2.90234 -1.82812,5.80859 -2.74609,8.71484 -0.45703,1.45313 -0.91406,2.90234 -1.375,4.35547 -0.10547,0.33984 -0.26172,0.69531 -0.32813,1.04687 -0.0898,0.46875 0.14063,0.3711 0.58203,0.40625 0.75391,0.0547 1.50782,0.10938 2.26172,0.15625 4.23828,0.25782 8.47657,0.25391 12.71094,0.32813 0.67188,0.0117 1.28125,-0.0977 1.51172,-0.80469 0.0937,-0.28125 0.0977,-0.58203 0.10156,-0.8789 0.0156,-1.45704 -0.0781,-2.96094 0.0547,-4.41016 0.125,-1.40234 -0.10938,-2.81641 -0.0781,-4.23047 -0.0234,-1.4375 0.0391,-2.85937 -0.004,-4.30078 -0.17188,-6.00391 -0.043,-12.02344 0.16797,-18.02734 0.0664,-1.89063 0.0508,-3.79297 0.36328,-5.66407 0.19531,-1.16797 0.4375,-2.32812 0.71875,-3.47656 0.26953,-1.09375 0.22265,-2.08594 0.15234,-3.21484 -0.1289,-2.07422 -0.42578,-4.13672 -1.0039,-6.13282 -0.39063,-1.35546 -1.74219,-2.0664 -2.83204,-2.86718 0.29688,-1.91797 0.66016,-3.82813 0.96875,-5.74219 0.0195,0.004 0.0547,0.008 0.0742,0.0117 -0.004,0.14453 1.125,-1.40625 1.14844,-3.3711 0.0703,-0.83984 0.0234,-1.6875 0.0625,-2.52734 0.0273,-0.33594 0.0508,-0.67187 0.0195,-1.00781 -0.13281,-0.53516 -0.28515,-1.06641 -0.38281,-1.61328 -0.0547,-0.25391 -0.0703,-0.51953 -0.14063,-0.76953 -0.0742,-0.50782 -0.082,-1.01563 -0.0977,-1.52735 -0.0664,-0.33203 0.0234,-0.66406 0.0117,-1 0,-0.69531 0.043,-1.39062 0.13281,-2.08203 0.0586,-0.83203 0.15625,-1.66016 0.27344,-2.48437 0.20312,-0.10157 0.41015,-0.19922 0.60156,-0.32813 -0.008,-0.54687 0.0664,-1.08984 0.0625,-1.63672 -0.33594,0.22266 -0.69531,0.41797 -1.05469,0.60156 -0.0156,-0.53906 -0.16015,-1.05859 -0.28906,-1.57421 -0.55078,-2.05079 -1.39063,-4.02735 -2.49219,-5.84375 -0.54297,-0.90625 -1.1289,-1.78516 -1.72265,-2.65235 -0.3086,-0.48828 -0.66797,-0.96094 -0.80469,-1.53125 0.58203,0.125 1.21484,0.082 1.74609,-0.20703 0.80078,-0.41015 1.33203,-1.20312 1.64453,-2.02734 0.3125,-0.83594 0.45703,-1.73047 0.44141,-2.6211 -0.004,-0.39843 0.008,-0.79687 -0.0586,-1.1914 -1.3086,0.54297 -2.60547,1.20703 -3.63672,2.19922 -0.36719,0.34375 -0.63282,0.77734 -0.89063,1.20312 -0.14453,-0.66015 -0.32031,-1.3125 -0.48828,-1.96484 0.53125,0.125 1.09766,-0.082 1.47656,-0.46094 0.50782,-0.46094 0.80469,-1.10547 0.9961,-1.75391 0.17578,-0.62109 0.24218,-1.26562 0.23828,-1.91015 -0.875,0.28125 -1.75391,0.59765 -2.51172,1.13281 -0.23047,0.15234 -0.41016,0.36328 -0.62891,0.52734 0.004,-0.0859 0.008,-0.17187 0.0117,-0.25781 0.33203,-0.72656 0.94922,-1.27344 1.30469,-1.98437 0.26172,-0.46485 0.48437,-0.94532 0.70703,-1.42969 0.39453,-0.8125 0.49219,-1.72656 0.55859,-2.61328 -0.0117,-0.5586 0.0898,-1.10938 0.0352,-1.66406 -0.043,-0.34375 -0.0234,-0.6875 -0.0352,-1.02735 -0.0625,-1.09765 -0.16015,-2.1875 -0.29687,-3.27734 -0.39844,0 -0.79297,0.0586 -1.1875,0.10547 0.14062,0.30859 0.20312,0.64062 0.26172,0.97265 0.13281,0.80078 0.21094,1.60938 0.24609,2.41797 0.0586,0.50781 0.043,1.02344 0.0391,1.53516 -0.13671,1.27344 -0.78515,2.44531 -1.64453,3.3789 -0.33593,0.33204 -0.65234,0.69922 -1.0625,0.9375 -0.0586,-0.42968 -0.21093,-0.83203 -0.35156,-1.23828 -0.83984,-2.26562 -1.90234,-4.4375 -2.96875,-6.60156 -0.0664,0.58594 -0.16016,1.16797 -0.20703,1.75781 0.73437,1.19532 1.26172,2.50782 1.66406,3.85157 0.15235,0.53125 0.3125,1.0625 0.42578,1.60937 -1.02343,-0.55859 -2.23828,-0.55859 -3.35156,-0.34766 0.35938,0.67188 0.81641,1.29688 1.36328,1.82813 0.46485,0.4375 1.05469,0.84375 1.72266,0.79297 0.24609,0.004 0.47265,-0.11328 0.69531,-0.20313 0.29297,1.75 0.49609,3.51953 0.58203,5.29297 -0.23047,-0.27344 -0.39844,-0.58984 -0.60937,-0.8789 -1.60547,-2.28516 -3.42969,-4.40625 -5.32813,-6.45313 -1.40625,-1.60547 -2.625,-3.36328 -3.79297,-5.14844 -1.71093,-2.64062 -3.28906,-5.36718 -4.77734,-8.14062 M 30.078125,130.34375 c 0.410156,1.02734 0.839844,2.05078 1.226563,3.08594 0.34375,0.9375 0.707031,1.87109 0.972656,2.83593 C 32,136.10547 31.734375,135.92578 31.4375,135.8125 c -1.085938,-0.44141 -2.296875,-0.44531 -3.445312,-0.30078 0.378906,0.80078 0.828124,1.5664 1.382812,2.25781 0.167969,0.21875 0.394531,0.39453 0.539062,0.63672 -0.07031,-0.0273 -0.136718,-0.0586 -0.207031,-0.0898 -0.945312,-0.51563 -1.875,-1.05469 -2.832031,-1.54688 0.222656,-0.23828 0.472656,-0.46094 0.609375,-0.76172 0.289063,-0.55859 0.25,-1.22656 0.03125,-1.80078 -0.339844,-0.91016 -1.003906,-1.65625 -1.738281,-2.27344 -0.02344,-0.004 -0.06641,-0.0117 -0.08594,-0.0156 -0.02734,-0.0586 -0.05859,-0.11719 -0.08984,-0.17578 0.796876,0.21875 1.660157,0.30468 2.457032,0.0586 0.796875,-0.23437 1.460937,-0.80469 1.914062,-1.49219 0.02734,0.008 0.08203,0.0273 0.105469,0.0352 m 124.624993,3.39453 c 0.44532,0.19141 0.95704,0.28516 1.4375,0.16406 -0.0312,0.48438 -0.043,0.98438 0.13672,1.44141 0.1875,0.56641 0.66407,0.98437 1.19922,1.22266 0.0977,0.26171 0.23047,0.50781 0.34766,0.76171 -0.84766,-0.26953 -1.75781,-0.21875 -2.61328,-0.008 0.35156,0.60547 0.80859,1.14453 1.33203,1.60938 0.40234,0.33203 0.89062,0.6289 1.43359,0.58984 0.30469,0.0117 0.57031,-0.15234 0.82031,-0.30469 0.55079,1.11719 1.14063,2.21485 1.71875,3.31641 0.14844,0.30078 0.33204,0.58203 0.44532,0.89453 -0.7461,-0.30859 -1.47266,-0.66406 -2.21094,-1 0.0156,0.21484 0.0156,0.43359 0.0859,0.63672 0.0977,0.16016 0.23828,0.28516 0.35937,0.42578 -0.94922,0.21484 -1.82422,0.68359 -2.60156,1.25781 0.32422,0.23047 0.66016,0.44141 1.00391,0.63672 0.76562,0.41406 1.58593,0.77735 2.46093,0.86328 0.51953,0.0469 1.08203,-0.0508 1.48828,-0.39843 0.17188,-0.13672 0.29688,-0.32422 0.4375,-0.48829 0.39454,0.17188 0.7461,0.42579 1.13282,0.61719 1.04687,0.57422 2.10547,1.13281 3.17578,1.66797 0.004,0.0195 0.008,0.0508 0.0117,0.0703 -0.61719,0.0625 -1.14453,0.46094 -1.4961,0.95313 -0.50781,0.71094 -0.76953,1.57422 -0.85156,2.4375 0.89844,-0.14453 1.79297,-0.40625 2.57031,-0.88281 0.42969,-0.28125 0.84375,-0.67579 0.92969,-1.20704 0.0664,-0.26171 -0.0117,-0.52734 -0.0547,-0.78515 0.29688,0.10547 0.57422,0.26172 0.85938,0.39453 0.59765,0.30469 1.20312,0.58594 1.80469,0.87891 0.18359,0.0898 0.38671,0.15234 0.51953,0.32031 -1.67578,0.65234 -2.98047,1.98828 -3.98828,3.44531 0.9414,0.29688 1.91406,0.49609 2.89062,0.60547 1.03906,0.10937 2.11719,0.12109 3.12109,-0.21094 0.33985,-0.10547 0.64063,-0.28906 0.94532,-0.47265 0.1289,0.38281 0.26953,0.76171 0.42578,1.13281 -0.54688,-0.19922 -1.14844,-0.21485 -1.71875,-0.10156 -0.98828,0.1914 -1.89844,0.67187 -2.69531,1.27734 0.65625,0.46094 1.35937,0.85937 2.10546,1.15234 0.64844,0.24219 1.35547,0.44141 2.05079,0.3086 0.40234,-0.0586 0.7539,-0.29297 1.03906,-0.57813 0.20312,0.59375 0.43359,1.17578 0.65625,1.76172 0.0469,0.10547 0.0312,0.21875 0.008,0.32422 -0.21484,0.92578 -0.40625,1.85547 -0.61328,2.78516 -0.10156,0.51953 -0.24609,1.02734 -0.32031,1.55468 -0.91407,-0.71093 -1.92188,-1.28515 -2.92578,-1.85937 -2.04297,-1.15235 -4.125,-2.25 -6.25391,-3.24219 -0.41797,-0.21484 -0.80078,-0.5 -1.17578,-0.78516 -1.11328,-0.85546 -2.1211,-1.83593 -3.14063,-2.79687 -0.84765,-0.85547 -1.71875,-1.69141 -2.53125,-2.57422 -1.02734,-0.98828 -1.86328,-2.15625 -2.63672,-3.34766 -0.85937,-1.34375 -1.65234,-2.73046 -2.36328,-4.15625 0.57813,-1.14453 0.86719,-2.41796 0.96875,-3.6914 0.10157,-1.14844 0.0703,-2.30469 -0.0312,-3.44922 -0.0898,-0.49609 0.0703,-0.99219 0.0312,-1.48828 -0.0312,-0.46485 -0.14062,-0.92578 -0.34765,-1.34375 -0.13672,-0.26953 -0.15625,-0.57422 -0.21485,-0.86328 0.26953,0.18359 0.52344,0.39843 0.83203,0.52734 M 32.949341,138.7421 c 0.109375,0.49218 0.1875,0.99218 0.171875,1.5 -0.613282,-0.35547 -1.242188,-0.67578 -1.835938,-1.0625 0.304688,0.0117 0.621094,0.0469 0.914063,-0.0508 0.273437,-0.0781 0.515625,-0.23438 0.75,-0.38672 m 142.585939,13.30078 c 0.26171,0.73437 0.46484,1.48828 0.66015,2.24609 0.0352,0.12891 0.0273,0.26172 0.004,0.39453 -0.11328,0.58985 -0.23438,1.17969 -0.34375,1.76953 -0.19531,-0.28515 -0.32422,-0.60546 -0.48828,-0.91015 -0.46875,-0.92969 -0.92969,-1.85938 -1.39844,-2.78906 0.26172,-0.33594 0.43359,-0.73438 0.51562,-1.15235 0.36719,0.10547 0.69141,0.3086 1.05079,0.44141 m -16.37891,4.53125 c 2.75391,1.89062 5.50391,3.78906 8.29297,5.63281 0.82422,0.67578 1.66406,1.43359 2.05859,2.44922 0.008,0.0547 0.0195,0.16406 0.0273,0.21875 -2.46094,-0.42188 -4.92969,-0.81641 -7.39454,-1.19922 -2.4375,-0.38672 -4.875,-0.75 -7.30078,-1.19141 -0.66406,-0.13671 -1.33593,-0.24218 -1.97265,-0.46484 -0.004,-0.0195 -0.0117,-0.0664 -0.0156,-0.0898 0.70313,-0.16407 1.34766,-0.58985 1.73047,-1.20313 0.71484,-1.08984 0.77344,-2.45703 0.60938,-3.71094 1.14843,-0.19921 2.29296,-0.4375 3.4375,-0.66406 0.21484,-0.0703 0.36328,0.1211 0.52734,0.22266 m -7.87891,1.17578 c -0.40234,0.76562 -0.68359,1.65234 -0.46484,2.51562 -0.0195,-0.008 -0.0625,-0.0234 -0.082,-0.0312 -0.41797,-0.51171 -0.83203,-1.02734 -1.20703,-1.5664 -0.11719,-0.17188 -0.27735,-0.32813 -0.31641,-0.53906 0.67969,-0.16797 1.37891,-0.25391 2.07031,-0.37891 m -2.91015,0.51562 c 0.10156,0.28907 0.27343,0.54688 0.40625,0.82422 -0.33203,-0.0664 -0.67188,-0.082 -1.00782,-0.0312 -0.875,0.125 -1.67968,0.53907 -2.39062,1.05078 0.62891,0.45704 1.3125,0.85157 2.04687,1.10157 0.53125,0.17968 1.125,0.28515 1.66797,0.10156 0.33985,-0.11328 0.60157,-0.38281 0.79297,-0.67578 0.48047,0.53125 0.91406,1.10156 1.41406,1.61328 0.0117,0.043 0.0234,0.0859 0.0352,0.13281 -0.63672,-0.0898 -1.28125,-0.0508 -1.92187,-0.004 -1.96875,0.14453 -3.90625,0.53125 -5.86329,0.75781 -0.51171,0.0352 -1.05468,0.15625 -1.54296,-0.0586 -0.12891,-0.41406 -0.40625,-0.75781 -0.65625,-1.10546 -0.66407,-0.8711 -1.40235,-1.6836 -2.12891,-2.5 0.19141,-0.0586 0.39453,-0.0508 0.58984,-0.0703 2.4375,-0.21875 4.86328,-0.55859 7.27344,-0.95703 0.43359,-0.043 0.85547,-0.15625 1.28516,-0.17969 m -7.29688,7.44922 c -0.0977,0.0859 -0.19922,0.17188 -0.30469,0.25391 -0.17968,0.15625 -0.34765,0.33203 -0.51953,0.5 -0.15234,-0.25 -0.375,-0.4375 -0.59765,-0.62109 0.46484,-0.10157 0.94531,-0.13282 1.42187,-0.13282 m -16.51953,2.56641 c -0.008,0.0273 -0.0195,0.0859 -0.0273,0.11328 -0.10938,0.0781 -0.21875,0.16406 -0.33203,0.23828 0.0117,-0.13281 0.0195,-0.26562 0.0312,-0.39453 0.10937,0.0117 0.21875,0.0234 0.32812,0.043 z m 0,0"
       fill-opacity="1"
       fill-rule="nonzero"
       id="path13" />
  </g>
  <g
     fill="#ffffff"
     fill-opacity="1"
     id="g95"
     transform="translate(40.383041,-99.854073)">
    <g
       transform="translate(249.28462,215.00555)"
       id="g93">
      <g
         id="g91" />
    </g>
  </g>
  <g
     fill="#ffffff"
     fill-opacity="1"
     id="g221"
     transform="translate(29.883041,-99.854073)">
    <g
       transform="translate(222.42757,242.9348)"
       id="g219">
      <g
         id="g217" />
    </g>
  </g>
  <g
     fill="#ffffff"
     fill-opacity="1"
     id="g235"
     transform="translate(29.883041,-99.854073)">
    <g
       transform="translate(238.85651,242.9348)"
       id="g233">
      <g
         id="g231" />
    </g>
  </g>
  <g
     id="g35568"
     transform="matrix(1.2505065,0,0,1.2505065,204.87357,-2.3127264)">
    <g
       aria-label="vasion"
       id="text3243"
       style="font-size:36px;line-height:1.25;stroke-width:0.75">
      <path
         d="m 9.8254003,51.391603 q 5.4719997,0 8.8919997,-0.396 3.42,-0.432 6.444,-1.62 v 2.52 H 6.2254003 v -25.272 H 24.6214 v 2.52 q -2.664,-1.116 -6.12,-1.548 -3.42,-0.468 -8.6759997,-0.468 v 10.296 H 22.7134 v 0.504 H 9.8254003 Z m 10.9439997,-34.488 -8.172,6.984 h -0.504 l 5.076,-6.984 z"
         style="font-family:'Black Mango';-inkscape-font-specification:'Black Mango';letter-spacing:-0.93px;fill:#ffffff"
         id="path50142" />
      <path
         d="m 45.795301,31.087603 -7.992,20.808 h -3.132 l -7.992,-20.808 h 3.6 l 7.56,19.476 3.744,-9.828 q 0.936,-2.52 1.332,-4.68 0.396,-2.196 0.36,-4.968 z"
         style="font-family:'Black Mango';-inkscape-font-specification:'Black Mango';letter-spacing:-0.93px;fill:#ffffff"
         id="path50144" />
      <path
         d="m 52.605274,52.435603 q -3.132,0 -4.968,-1.728 -1.836,-1.764 -1.836,-4.608 0,-4.284 3.924,-6.804 3.96,-2.52 10.476,-4.032 0,-2.16 -1.044,-3.276 -1.044,-1.116 -2.844,-1.116 -1.944,0 -4.068,1.188 -2.124,1.152 -3.816,3.096 l -0.72,-2.772 q 1.944,-0.9 4.176,-1.404 2.232,-0.54 4.32,-0.54 3.42,0 5.508,1.548 2.088,1.512 2.088,4.86 v 15.048 h -3.6 v -3.204 q -1.584,1.728 -3.6,2.736 -2.016,1.008 -3.996,1.008 z m 1.404,-1.152 q 1.548,0 3.24,-0.864 1.728,-0.9 2.952,-2.232 v -12.42 q -5.796,1.26 -8.316,3.708 -2.484,2.448 -2.484,6.084 0,2.772 1.296,4.248 1.296,1.476 3.312,1.476 z"
         style="font-family:'Black Mango';-inkscape-font-specification:'Black Mango';letter-spacing:-0.93px;fill:#ffffff"
         id="path50146" />
      <path
         d="m 73.995211,52.471603 q -1.944,0 -3.924,-0.36 -1.98,-0.36 -3.672,-0.972 l 0.612,-2.52 q 2.232,1.62 4.392,2.304 2.196,0.684 4.104,0.684 2.34,0 3.888,-0.9 1.584,-0.936 1.692,-2.448 0,-1.188 -1.008,-2.232 -1.008,-1.08 -2.484,-1.944 -1.44,-0.864 -3.96,-2.16 -2.448,-1.224 -3.996,-2.124 -1.512,-0.9 -2.556,-1.98 -1.044,-1.116 -1.044,-2.34 0,-2.52 2.772,-3.744 2.808,-1.26 6.948,-1.26 3.636,0 6.948,0.864 l -0.396,2.52 q -1.908,-1.188 -4.356,-1.908 -2.412,-0.756 -4.392,-0.756 -2.232,0 -3.636,0.756 -1.368,0.756 -1.368,2.196 0,1.044 1.404,2.016 1.404,0.936 4.428,2.412 2.808,1.368 4.608,2.448 1.8,1.044 3.06,2.484 1.296,1.44 1.296,3.168 -0.108,2.952 -2.808,4.392 -2.7,1.404 -6.552,1.404 z"
         style="font-family:'Black Mango';-inkscape-font-specification:'Black Mango';letter-spacing:-0.93px;fill:#ffffff"
         id="path50148" />
      <path
         d="m 87.933102,28.855603 q -0.828,0 -1.44,-0.576 -0.576,-0.612 -0.576,-1.44 0,-0.828 0.576,-1.404 0.612,-0.612 1.44,-0.612 0.828,0 1.404,0.612 0.612,0.576 0.612,1.404 0,0.828 -0.612,1.44 -0.576,0.576 -1.404,0.576 z m 1.8,23.04 h -3.6 v -20.808 h 3.6 z"
         style="font-family:'Black Mango';-inkscape-font-specification:'Black Mango';letter-spacing:-0.93px;fill:#ffffff"
         id="path50150" />
      <path
         d="m 102.26707,52.507603 q -3.132002,0 -5.400002,-1.332 -2.268,-1.368 -3.492,-3.852 -1.188,-2.484 -1.188,-5.76 0,-3.312 1.188,-5.832 1.224,-2.52 3.492,-3.888 2.268,-1.368 5.400002,-1.368 3.024,0 5.292,1.404 2.268,1.368 3.492,3.888 1.224,2.484 1.224,5.796 0,3.276 -1.224,5.76 -1.224,2.484 -3.492,3.852 -2.268,1.332 -5.292,1.332 z m 0,-0.504 q 2.016,0 3.492,-1.44 1.512,-1.44 2.304,-3.816 0.792,-2.412 0.792,-5.184 0,-2.7 -0.792,-5.112 -0.792,-2.448 -2.304,-3.96 -1.476,-1.512 -3.492,-1.512 -2.16,0 -3.672002,1.512 -1.476,1.476 -2.232,3.924 -0.72,2.412 -0.72,5.148 0,2.808 0.72,5.184 0.756,2.376 2.232,3.816 1.512002,1.44 3.672002,1.44 z"
         style="font-family:'Black Mango';-inkscape-font-specification:'Black Mango';letter-spacing:-0.93px;fill:#ffffff"
         id="path50152" />
      <path
         d="m 128.30103,30.475603 q 2.016,0 3.384,1.332 1.404,1.332 1.404,3.924 v 16.164 h -3.6 v -16.272 q 0,-1.98 -0.756,-2.952 -0.756,-1.008 -2.052,-1.008 -1.296,0 -2.88,0.9 -1.548,0.9 -3.096,2.556 -1.512,1.656 -2.664,3.852 v 12.924 h -3.6 v -20.808 h 3.6 v 6.984 q 2.16,-3.744 4.932,-5.652 2.772,-1.944 5.328,-1.944 z"
         style="font-family:'Black Mango';-inkscape-font-specification:'Black Mango';letter-spacing:-0.93px;fill:#ffffff"
         id="path50154" />
    </g>
    <g
       aria-label="Gusto"
       id="text3243-4"
       style="font-size:48px;line-height:1.25;stroke-width:0.75">
      <path
         d="m 24.7534,93.334967 q -5.28,0 -9.504,-2.112 -4.176,-2.16 -6.6239996,-6.24 -2.4,-4.128 -2.4,-9.792 0,-5.28 2.448,-9.12 2.4959996,-3.84 6.7679996,-5.808 4.32,-2.016 9.648,-2.016 5.616,0 11.184,2.112 l -0.24,3.36 q -3.168,-2.352 -6.288,-3.504 -3.12,-1.2 -5.952,-1.2 -3.696,0 -6.624,1.872 -2.88,1.872 -4.512,5.52 -1.632,3.648 -1.632,8.784 0,5.376 1.92,9.312 1.968,3.936 5.28,6.048 3.312,2.064 7.344,2.064 3.264,0 6.528,-1.632 v -15.984 h 4.8 v 15.648 q -6.336,2.688 -12.144,2.688 z"
         style="font-family:'Black Mango';-inkscape-font-specification:'Black Mango';letter-spacing:-0.93px;fill:#ffffff"
         id="path50157" />
      <path
         d="m 49.887335,93.382967 q -3.6,0 -6.048,-2.16 -2.4,-2.16 -2.4,-6.192 v -20.16 h 4.8 v 21.648 q 0,2.832 1.344,4.368 1.392,1.488 3.456,1.488 2.208,0 4.224,-1.68 2.064,-1.728 3.456,-4.752 1.392,-3.072 1.776,-6.912 v -14.16 h 4.8 v 27.744 h -4.8 v -9.888 h -0.144 q -1.344,5.04 -4.128,7.872 -2.736,2.784 -6.336,2.784 z"
         style="font-family:'Black Mango';-inkscape-font-specification:'Black Mango';letter-spacing:-0.93px;fill:#ffffff"
         id="path50159" />
      <path
         d="m 79.869311,93.382967 q -2.592,0 -5.232,-0.48 -2.64,-0.48 -4.896,-1.296 l 0.816,-3.36 q 2.976,2.16 5.856,3.072 2.928,0.912 5.472,0.912 3.12,0 5.184,-1.2 2.112,-1.248 2.256,-3.264 0,-1.584 -1.344,-2.976 -1.344,-1.44 -3.312,-2.592 -1.92,-1.152 -5.28,-2.88 -3.264,-1.632 -5.328,-2.832 -2.016,-1.2 -3.408,-2.64 -1.392,-1.488 -1.392,-3.12 0,-3.36 3.696,-4.992 3.744,-1.68 9.264,-1.68 4.848,0 9.264,1.152 l -0.528,3.36 q -2.544,-1.584 -5.808,-2.544 -3.216,-1.008 -5.856,-1.008 -2.976,0 -4.848,1.008 -1.824,1.008 -1.824,2.928 0,1.392 1.872,2.688 1.872,1.248 5.904,3.216 3.744,1.824 6.144,3.264 2.4,1.392 4.08,3.312 1.728,1.92 1.728,4.224 -0.144,3.936 -3.744,5.856 -3.6,1.872 -8.736,1.872 z"
         style="font-family:'Black Mango';-inkscape-font-specification:'Black Mango';letter-spacing:-0.93px;fill:#ffffff"
         id="path50161" />
      <path
         d="m 105.62722,93.526967 q -2.448,0 -4.656,-1.056 -2.159997,-1.104 -3.503997,-3.168 -1.344,-2.064 -1.344,-4.848 v -18.912 h -2.88 v -0.672 h 3.552 q 1.728,-1.92 2.592,-4.656 0.863997,-2.784 0.863997,-6.096 h 0.624 l 0.048,10.752 h 7.344 v 0.672 h -7.344 v 22.08 q 0,2.544 1.152,3.936 1.152,1.392 2.88,1.392 2.016,0 4.08,-1.92 2.112,-1.92 3.552,-5.28 l 1.344,2.928 q -1.296,2.4 -3.552,3.648 -2.208,1.2 -4.752,1.2 z"
         style="font-family:'Black Mango';-inkscape-font-specification:'Black Mango';letter-spacing:-0.93px;fill:#ffffff"
         id="path50163" />
      <path
         d="m 126.92117,93.430967 q -4.176,0 -7.2,-1.776 -3.024,-1.824 -4.656,-5.136 -1.584,-3.312 -1.584,-7.68 0,-4.416 1.584,-7.776 1.632,-3.36 4.656,-5.184 3.024,-1.824 7.2,-1.824 4.032,0 7.056,1.872 3.024,1.824 4.656,5.184 1.632,3.312 1.632,7.728 0,4.368 -1.632,7.68 -1.632,3.312 -4.656,5.136 -3.024,1.776 -7.056,1.776 z m 0,-0.672 q 2.688,0 4.656,-1.92 2.016,-1.92 3.072,-5.088 1.056,-3.216 1.056,-6.912 0,-3.6 -1.056,-6.816 -1.056,-3.264 -3.072,-5.28 -1.968,-2.016 -4.656,-2.016 -2.88,0 -4.896,2.016 -1.968,1.968 -2.976,5.232 -0.96,3.216 -0.96,6.864 0,3.744 0.96,6.912 1.008,3.168 2.976,5.088 2.016,1.92 4.896,1.92 z"
         style="font-family:'Black Mango';-inkscape-font-specification:'Black Mango';letter-spacing:-0.93px;fill:#ffffff"
         id="path50165" />
    </g>
  </g>
</svg>
